<?xml version="1.0" encoding="utf-8"?>
<!-- Generator: Adobe Illustrator 19.2.0, SVG Export Plug-In . SVG Version: 6.00 Build 0)  -->
<svg version="1.1" id="Calque_1" xmlns="http://www.w3.org/2000/svg" xmlns:xlink="http://www.w3.org/1999/xlink" x="0px" y="0px"
	 viewBox="0 0 915.4 424.5" style="enable-background:new 0 0 915.4 424.5;" xml:space="preserve">
<style type="text/css">
	.st0{clip-path:url(#SVGID_2_);fill:#7BB629;}
	.st1{clip-path:url(#SVGID_2_);fill:#7CB629;}
	.st2{clip-path:url(#SVGID_2_);fill:#7EB728;}
	.st3{clip-path:url(#SVGID_2_);fill:#7FB728;}
	.st4{clip-path:url(#SVGID_2_);fill:#80B728;}
	.st5{clip-path:url(#SVGID_2_);fill:#81B727;}
	.st6{clip-path:url(#SVGID_4_);fill:#84B727;}
	.st7{clip-path:url(#SVGID_4_);fill:#85B826;}
	.st8{clip-path:url(#SVGID_4_);fill:#83B727;}
	.st9{clip-path:url(#SVGID_4_);fill:#86B826;}
	.st10{clip-path:url(#SVGID_6_);fill:#86B826;}
	.st11{clip-path:url(#SVGID_6_);fill:#88B825;}
	.st12{clip-path:url(#SVGID_6_);fill:#89B825;}
	.st13{clip-path:url(#SVGID_6_);fill:#8AB825;}
	.st14{clip-path:url(#SVGID_6_);fill:#8BB924;}
	.st15{clip-path:url(#SVGID_8_);fill:#8BB924;}
	.st16{clip-path:url(#SVGID_8_);fill:#8CB924;}
	.st17{clip-path:url(#SVGID_8_);fill:#8DB923;}
	.st18{clip-path:url(#SVGID_8_);fill:#8FB923;}
	.st19{clip-path:url(#SVGID_10_);fill:#90B923;}
	.st20{clip-path:url(#SVGID_10_);fill:#91B922;}
	.st21{clip-path:url(#SVGID_10_);fill:#8FB923;}
	.st22{clip-path:url(#SVGID_10_);fill:#92B922;}
	.st23{clip-path:url(#SVGID_10_);fill:#93BA21;}
	.st24{clip-path:url(#SVGID_12_);fill:#93BA21;}
	.st25{clip-path:url(#SVGID_12_);fill:#94BA21;}
	.st26{clip-path:url(#SVGID_12_);fill:#95BA21;}
	.st27{clip-path:url(#SVGID_12_);fill:#96BA20;}
	.st28{clip-path:url(#SVGID_12_);fill:#97BA20;}
	.st29{clip-path:url(#SVGID_14_);fill:#98BA1F;}
	.st30{clip-path:url(#SVGID_14_);fill:#99BA1F;}
	.st31{clip-path:url(#SVGID_14_);fill:#97BA20;}
	.st32{clip-path:url(#SVGID_14_);fill:#9ABB1E;}
	.st33{clip-path:url(#SVGID_14_);fill:#9BBB1E;}
	.st34{clip-path:url(#SVGID_16_);fill:#9CBB1D;}
	.st35{clip-path:url(#SVGID_16_);fill:#9DBB1D;}
	.st36{clip-path:url(#SVGID_16_);fill:#9BBB1E;}
	.st37{clip-path:url(#SVGID_16_);fill:#9EBB1C;}
	.st38{clip-path:url(#SVGID_16_);fill:#9FBB1C;}
	.st39{clip-path:url(#SVGID_18_);fill:#9FBB1C;}
	.st40{clip-path:url(#SVGID_18_);fill:#A0BB1C;}
	.st41{clip-path:url(#SVGID_18_);fill:#A1BC1B;}
	.st42{fill:#EDEDED;}
	.st43{fill:url(#SVGID_19_);}
	.st44{fill:url(#SVGID_20_);}
	.st45{fill:url(#SVGID_21_);}
	.st46{fill:url(#SVGID_22_);}
	.st47{fill:url(#SVGID_23_);}
	.st48{fill:url(#SVGID_24_);}
	.st49{fill:url(#SVGID_25_);}
	.st50{fill:url(#SVGID_26_);}
	.st51{fill:url(#SVGID_27_);}
	.st52{fill:url(#SVGID_28_);}
	.st53{fill:url(#SVGID_29_);}
</style>
<g>
	<g>
		<g>
			<defs>
				<path id="SVGID_1_" d="M0,308h37.3v12c5.8-7.4,14.8-14.1,27.1-14.1c12.2,0,21.5,5.3,26.5,14.8c7.6-8.6,16.6-14.8,30.4-14.8
					c19.2,0,31.1,12.5,31.1,32.7v59.2h-37.3v-47.5c0-7.6-4.4-11.8-9.9-11.8c-5.4,0-10.4,4.3-10.4,11.8v47.5H57.6v-47.5
					c0-7.6-4.4-11.8-9.9-11.8c-5.4,0-10.4,4.3-10.4,11.8v47.5H0V308z"/>
			</defs>
			<clipPath id="SVGID_2_">
				<use xlink:href="#SVGID_1_"  style="overflow:visible;"/>
			</clipPath>
			<polygon class="st0" points="25.8,305.9 24,397.9 0,397.9 0,305.9 			"/>
			<polygon class="st1" points="52,305.9 50.2,397.9 24,397.9 25.8,305.9 			"/>
			<polygon class="st2" points="78.3,305.9 76.5,397.9 50.2,397.9 52,305.9 			"/>
			<polygon class="st3" points="104.5,305.9 102.7,397.9 76.5,397.9 78.3,305.9 			"/>
			<polygon class="st4" points="130.8,305.9 129,397.9 102.7,397.9 104.5,305.9 			"/>
			<polygon class="st5" points="129,397.9 130.8,305.9 152.5,305.9 152.5,397.9 			"/>
		</g>
	</g>
	<g>
		<g>
			<defs>
				<path id="SVGID_3_" d="M160.2,353.5v-0.3c0-26.8,19.2-47.2,46.2-47.2c31.9,0,46.7,22.2,46.7,49.5c0,2,0,4.3-0.2,6.3h-57.7
					c2.6,7.9,8.9,12,16.9,12c6.7,0,12.3-3.1,18.3-9.2l20.1,16c-8.9,11.5-21.5,19.6-41,19.6C180.1,400,160.2,381.4,160.2,353.5z
					 M219.1,345.2c-0.8-8.6-5.9-13.5-12.5-13.5c-6.3,0-10.7,5.3-11.8,13.5H219.1z"/>
			</defs>
			<clipPath id="SVGID_4_">
				<use xlink:href="#SVGID_3_"  style="overflow:visible;"/>
			</clipPath>
			<polygon class="st6" points="209,331.7 208.7,345.2 194.8,345.2 194.8,331.7 			"/>
			<polygon class="st7" points="208.7,345.2 209,331.7 219.1,331.7 219.1,345.2 			"/>
			<polygon class="st8" points="183.3,305.9 181.4,400 160.2,400 160.2,305.9 			"/>
			<polygon class="st6" points="209.5,305.9 207.7,400 181.4,400 183.3,305.9 			"/>
			<polygon class="st7" points="235.7,305.9 233.9,400 207.7,400 209.5,305.9 			"/>
			<polygon class="st9" points="233.9,400 235.7,305.9 253.2,305.9 253.2,400 			"/>
		</g>
	</g>
	<g>
		<g>
			<defs>
				<path id="SVGID_5_" d="M255,387l12.7-21.2c10.9,6.7,23,10,33.2,10c3.6,0,5.4-0.8,5.4-3v-0.3c0-1.8-1.6-3-10.7-5.3
					c-22.7-5.6-36.7-11.7-36.7-30.3v-0.3c0-19.7,15.8-30.8,39.2-30.8c14.8,0,29.4,3.8,40.3,10.4l-11.8,22.2
					c-9.5-5.3-21.1-8.4-28.6-8.4c-3.6,0-5.3,1-5.3,2.8v0.3c0,1.8,2,3,11,5.3c22.7,5.6,36.4,11.8,36.4,30.3v0.3
					c0,19.6-14.6,30.9-39,30.9C283.6,400,267.8,395.6,255,387z"/>
			</defs>
			<clipPath id="SVGID_6_">
				<use xlink:href="#SVGID_5_"  style="overflow:visible;"/>
			</clipPath>
			<polygon class="st10" points="262,305.9 260.1,400 255,400 255,305.9 			"/>
			<polygon class="st11" points="288.2,305.9 286.4,400 260.1,400 262,305.9 			"/>
			<polygon class="st12" points="314.5,305.9 312.6,400 286.4,400 288.2,305.9 			"/>
			<polygon class="st13" points="340,342.7 338.9,400 312.6,400 314.5,305.9 340,305.9 			"/>
			<polygon class="st14" points="338.9,400 340,342.7 340,400 			"/>
		</g>
	</g>
	<g>
		<g>
			<defs>
				<path id="SVGID_7_" d="M341.3,387l12.7-21.2c10.9,6.7,23,10,33.2,10c3.6,0,5.4-0.8,5.4-3v-0.3c0-1.8-1.6-3-10.7-5.3
					c-22.7-5.6-36.7-11.7-36.7-30.3v-0.3c0-19.7,15.8-30.8,39.1-30.8c14.8,0,29.4,3.8,40.3,10.4l-11.8,22.2
					c-9.5-5.3-21.1-8.4-28.6-8.4c-3.6,0-5.3,1-5.3,2.8v0.3c0,1.8,2,3,11,5.3c22.7,5.6,36.4,11.8,36.4,30.3v0.3
					c0,19.6-14.6,30.9-39,30.9C369.9,400,354.2,395.6,341.3,387z"/>
			</defs>
			<clipPath id="SVGID_8_">
				<use xlink:href="#SVGID_7_"  style="overflow:visible;"/>
			</clipPath>
			<polygon class="st15" points="367,305.9 365.1,400 341.3,400 341.3,305.9 			"/>
			<polygon class="st16" points="393.2,305.9 391.4,400 365.1,400 367,305.9 			"/>
			<polygon class="st17" points="419.5,305.9 417.6,400 391.4,400 393.2,305.9 			"/>
			<polygon class="st18" points="417.6,400 419.5,305.9 426.4,305.9 426.4,400 			"/>
		</g>
	</g>
	<g>
		<g>
			<defs>
				<path id="SVGID_9_" d="M431.3,353.5v-0.3c0-26.8,19.2-47.2,46.2-47.2c31.9,0,46.7,22.2,46.7,49.5c0,2,0,4.3-0.2,6.3h-57.7
					c2.6,7.9,8.9,12,16.9,12c6.7,0,12.3-3.1,18.3-9.2l20.1,16c-8.9,11.5-21.5,19.6-41,19.6C451.2,400,431.3,381.4,431.3,353.5z
					 M490.2,345.2c-0.8-8.6-5.9-13.5-12.5-13.5c-6.3,0-10.7,5.3-11.8,13.5H490.2z"/>
			</defs>
			<clipPath id="SVGID_10_">
				<use xlink:href="#SVGID_9_"  style="overflow:visible;"/>
			</clipPath>
			<polygon class="st19" points="471.5,331.7 471.2,345.2 465.8,345.2 465.8,331.7 			"/>
			<polygon class="st20" points="471.2,345.2 471.5,331.7 490.2,331.7 490.2,345.2 			"/>
			<polygon class="st21" points="445.7,305.9 443.9,400 431.3,400 431.3,305.9 			"/>
			<polygon class="st19" points="472,305.9 470.1,400 443.9,400 445.7,305.9 			"/>
			<polygon class="st20" points="498.2,305.9 496.4,400 470.1,400 472,305.9 			"/>
			<polygon class="st22" points="524.2,316.9 522.6,400 496.4,400 498.2,305.9 524.2,305.9 			"/>
			<polygon class="st23" points="522.6,400 524.2,316.9 524.2,400 			"/>
		</g>
	</g>
	<g>
		<g>
			<defs>
				<path id="SVGID_11_" d="M532.5,308h37.3v12.5c5.8-7.4,14.8-14.6,27.5-14.6c18.9,0,30.8,12.5,30.8,32.7v59.2h-37.3v-47.2
					c0-7.7-4.6-12.2-10.2-12.2c-5.6,0-10.7,4.4-10.7,12.2v47.2h-37.3V308z"/>
			</defs>
			<clipPath id="SVGID_12_">
				<use xlink:href="#SVGID_11_"  style="overflow:visible;"/>
			</clipPath>
			<polygon class="st24" points="550.7,305.9 548.9,397.9 532.5,397.9 532.5,305.9 			"/>
			<polygon class="st25" points="577,305.9 575.1,397.9 548.9,397.9 550.7,305.9 			"/>
			<polygon class="st26" points="603.2,305.9 601.4,397.9 575.1,397.9 577,305.9 			"/>
			<polygon class="st27" points="628,377.7 627.6,397.9 601.4,397.9 603.2,305.9 628,305.9 			"/>
			<polygon class="st28" points="627.6,397.9 628,377.7 628,397.9 			"/>
		</g>
	</g>
	<g>
		<g>
			<defs>
				<path id="SVGID_13_" d="M636.6,413.3l11.5-22.5c10,5.3,20.1,8.6,32.4,8.6c14,0,21.4-7.2,21.4-19.7V377
					c-5.1,5.8-13.5,12.3-26,12.3c-23.2,0-40-16.4-40-41.3v-0.3c0-25.2,17.1-41.8,37.8-41.8c13.2,0,20.9,4.9,27.5,11.7V308h37.3v67.1
					c0,16.6-3.5,28-11.7,36.2c-8.1,8.1-20.4,13.2-40.5,13.2C666.5,424.5,651.1,420.6,636.6,413.3z M702.1,347.9v-0.3
					c0-7.7-5.9-14-15-14c-9.2,0-15,6.4-15,14.3v0.3c0,7.7,5.9,13.8,15,13.8C696.3,362,702.1,355.8,702.1,347.9z"/>
			</defs>
			<clipPath id="SVGID_14_">
				<use xlink:href="#SVGID_13_"  style="overflow:visible;"/>
			</clipPath>
			<polygon class="st29" points="681.4,333.5 680.8,362 672.1,362 672.1,333.5 			"/>
			<polygon class="st30" points="680.8,362 681.4,333.5 702.1,333.5 702.1,362 			"/>
			<polygon class="st31" points="655.7,305.9 653.4,424.5 635.9,424.5 635.9,305.9 			"/>
			<polygon class="st29" points="681.9,305.9 679.6,424.5 653.4,424.5 655.7,305.9 			"/>
			<polygon class="st30" points="708.2,305.9 705.9,424.5 679.6,424.5 681.9,305.9 			"/>
			<polygon class="st32" points="734.4,305.9 732.1,424.5 705.9,424.5 708.2,305.9 			"/>
			<polygon class="st33" points="732.1,424.5 734.4,305.9 738.6,305.9 738.6,424.5 			"/>
		</g>
	</g>
	<g>
		<g>
			<defs>
				<path id="SVGID_15_" d="M747,353.5v-0.3c0-26.8,19.2-47.2,46.2-47.2c31.9,0,46.7,22.2,46.7,49.5c0,2,0,4.3-0.2,6.3H782
					c2.6,7.9,8.9,12,16.9,12c6.7,0,12.3-3.1,18.3-9.2l20.1,16c-8.9,11.5-21.5,19.6-41,19.6C766.9,400,747,381.4,747,353.5z
					 M805.9,345.2c-0.8-8.6-5.9-13.5-12.5-13.5c-6.3,0-10.7,5.3-11.8,13.5H805.9z"/>
			</defs>
			<clipPath id="SVGID_16_">
				<use xlink:href="#SVGID_15_"  style="overflow:visible;"/>
			</clipPath>
			<polygon class="st34" points="786.4,331.7 786.2,345.2 781.5,345.2 781.5,331.7 			"/>
			<polygon class="st35" points="786.2,345.2 786.4,331.7 805.9,331.7 805.9,345.2 			"/>
			<polygon class="st36" points="760.7,305.9 758.8,400 747,400 747,305.9 			"/>
			<polygon class="st34" points="786.9,305.9 785.1,400 758.8,400 760.7,305.9 			"/>
			<polygon class="st35" points="813.2,305.9 811.3,400 785.1,400 786.9,305.9 			"/>
			<polygon class="st37" points="839.4,305.9 837.6,400 811.3,400 813.2,305.9 			"/>
			<polygon class="st38" points="837.6,400 839.4,305.9 839.9,305.9 839.9,400 			"/>
		</g>
	</g>
	<g>
		<g>
			<defs>
				<path id="SVGID_17_" d="M848.1,308h37.3v18.1c5.1-12.2,13.3-20.1,28.1-19.4v39.6h-3.9c-15.8,0-24.2,8.7-24.2,28.6v22.9h-37.3
					V308z"/>
			</defs>
			<clipPath id="SVGID_18_">
				<use xlink:href="#SVGID_17_"  style="overflow:visible;"/>
			</clipPath>
			<polygon class="st39" points="865.7,306.1 863.9,397.9 848.1,397.9 848.1,306.1 			"/>
			<polygon class="st40" points="891.9,306.1 890.1,397.9 863.9,397.9 865.7,306.1 			"/>
			<polygon class="st41" points="890.1,397.9 891.9,306.1 913.6,306.1 913.6,397.9 			"/>
		</g>
	</g>
</g>
<rect x="1.2" y="272.3" class="st42" width="911.8" height="1.3"/>
<g>
	<g>
		<linearGradient id="SVGID_19_" gradientUnits="userSpaceOnUse" x1="309.7064" y1="35.423" x2="267.9689" y2="939.7359">
			<stop  offset="0" style="stop-color:#FFFFFF"/>
			<stop  offset="1" style="stop-color:#1D1D1B"/>
		</linearGradient>
		<path class="st43" d="M197.9,228.6c6.9,0,13.6-3.3,20-9.8c6.5-6.6,13-15.2,19.7-25.9c6.6-10.7,13.4-22.9,20.4-36.6
			c7-13.7,14.4-27.7,22.3-42c7.9-14.3,16.3-28.3,25.3-42c9-13.7,18.8-25.9,29.3-36.6c10.6-10.7,22-19.3,34.3-25.9
			C381.6,3.3,395.2,0,409.9,0c8.9,0,17.2,1.2,24.9,3.5c7.7,2.3,14.2,5.5,19.7,9.5c5.5,4,9.8,8.5,12.9,13.6
			c3.1,5.1,4.7,10.4,4.7,15.8c0,3.4-0.4,6.6-1.3,9.4c-0.9,2.8-1.8,5.2-2.7,7.3c-1.1,2.3-2.3,4.5-3.8,6.3c-3-3.1-6.6-6-11-8.7
			c-3.8-2.2-8.6-4.2-14.4-6.1s-12.8-2.8-20.8-2.8c-13,0-25.3,2.9-36.9,8.7c-11.6,5.8-22.8,13.4-33.4,23
			c-10.6,9.5-20.8,20.4-30.6,32.5c-9.8,12.1-19.3,24.5-28.7,37c-9.4,12.6-18.6,24.9-27.5,37c-9,12.1-18.1,22.9-27.2,32.5
			s-18.4,17.2-27.9,23c-9.5,5.8-19.2,8.7-29.2,8.7h-0.5h-1.4c-2.2,0-4.5-0.4-6.9-1.3c-2.4-0.9-4.6-2.3-6.6-4.3c-2-2-3.6-4.7-4.9-8
			c-1.3-3.3-2-7.4-2-12.4c0-4.7,1-10,2.9-15.9c2-5.9,4.4-12.2,7.4-18.8c3-6.6,6.1-13.4,9.5-20.4c3.4-7,6.5-14.1,9.5-21.1
			c3-7,5.4-13.9,7.4-20.6c2-6.7,2.9-13.1,2.9-19.2c0-9.8-3.2-17.7-9.7-23.7c-6.5-5.9-15.4-8.9-26.6-8.9c-2.5,0-4.8,0.2-6.8,0.5
			c-2,0.3-3.9,0.7-5.6,1.2v-0.2c2.2-5.8,5.3-10.9,9.4-15.5c3.6-3.9,8.4-7.5,14.3-10.7c5.9-3.2,13.6-4.8,23-4.8c9.4,0,17.1,2,23.1,6
			c6,4,10.8,8.9,14.3,14.8c3.5,5.9,6,12.1,7.4,18.6c1.4,6.6,2.1,12.5,2.1,17.8c0,8-1.7,16.6-5,25.9c-3.4,9.3-7.3,18.6-12,27.9
			c-4.6,9.3-9.4,18.3-14.3,26.8c-4.9,8.6-8.9,16.2-11.8,22.9c-3,6.6-4.5,12-4.7,15.9C190.7,226.6,193.1,228.6,197.9,228.6z"/>
		<linearGradient id="SVGID_20_" gradientUnits="userSpaceOnUse" x1="360.6673" y1="37.7751" x2="318.9297" y2="942.088">
			<stop  offset="0" style="stop-color:#FFFFFF"/>
			<stop  offset="1" style="stop-color:#1D1D1B"/>
		</linearGradient>
		<path class="st44" d="M402.1,148.7c1.1-2,2.3-3.3,3.5-3.9c1.2-0.5,2.3-0.6,3.2-0.1c0.9,0.5,1.4,1.4,1.8,2.7
			c0.3,1.3,0.1,2.9-0.7,4.8c-1.9,4.1-4,8.8-6.4,14.1c-2.4,5.3-5.2,10.8-8.2,16.4c-3,5.6-6.6,11.1-10.6,16.5
			c-4,5.4-8.5,10.2-13.6,14.4c-5.1,4.2-10.8,7.6-17.1,10.2c-6.3,2.6-13.4,3.9-21.2,3.9c-4.7,0-9.1-0.9-13.2-2.8
			c-4.1-1.9-7.8-4.4-10.9-7.6c-3.1-3.2-5.6-7-7.4-11.4c-1.8-4.4-2.7-9.1-2.7-14.1c0-9.2,2-18.9,6.1-29c4.1-10.1,9.4-19.3,15.9-27.7
			c6.6-8.4,14-15.3,22.2-20.8c8.2-5.5,16.4-8.2,24.7-8.2c4.1,0,7.3,0.7,9.6,2.1s4.1,3,5.3,4.9c1.2,1.9,1.9,3.8,2.1,5.9
			c0.2,2,0.4,3.7,0.4,4.9c0,4.7-1.1,9.9-3.3,15.7c-2.2,5.8-5,11.2-8.6,16.3c-3.5,5.1-7.4,9.3-11.7,12.8c-4.3,3.4-8.6,5.2-13,5.2
			c-2.8,0-5.3-0.5-7.5-1.4c-2.2-0.9-4.1-2.1-5.9-3.5c-0.2,0.9-0.3,1.9-0.4,2.8c-0.1,0.9-0.1,1.8-0.1,2.6c0,5.6,2.1,9.8,6.4,12.7
			c4.3,2.8,9.8,3.5,16.4,2.1c6.6-1.4,14-5.3,21.9-11.7C387.1,171.1,394.8,161.5,402.1,148.7z M366.9,124c-0.9,0-2.4,0.7-4.3,2.2
			c-2,1.5-4.1,3.5-6.4,6.1c-2.3,2.6-4.8,5.5-7.3,8.8c-2.5,3.3-4.8,6.7-6.8,10.3c0.6,0.2,1.2,0.3,1.6,0.4c0.5,0.1,1,0.1,1.6,0.1
			c3.1,0,6.3-1.4,9.6-4.3c3.3-2.9,6.1-6.1,8.6-9.6c2.4-3.5,4.1-6.7,4.9-9.6C369.3,125.5,368.8,124,366.9,124z"/>
		<linearGradient id="SVGID_21_" gradientUnits="userSpaceOnUse" x1="566.1057" y1="47.2569" x2="524.3682" y2="951.5697">
			<stop  offset="0" style="stop-color:#FFFFFF"/>
			<stop  offset="1" style="stop-color:#1D1D1B"/>
		</linearGradient>
		<path class="st45" d="M628.6,148.7c1.1-2,2.3-3.3,3.5-3.9c1.2-0.5,2.3-0.6,3.3-0.1c0.9,0.5,1.5,1.4,1.8,2.7c0.2,1.3,0,2.9-0.8,4.8
			c-1.9,4.1-4,8.8-6.4,14.1c-2.4,5.3-5.1,10.8-8,16.4c-2.9,5.6-6,11.1-9.4,16.5c-3.4,5.4-7,10.2-10.8,14.4c-3.8,4.2-7.8,7.6-12,10.2
			c-4.1,2.6-8.5,3.9-13,3.9c-5.2,0-9.6-1.1-13.4-3.3c-3.8-2.2-6.8-5.1-9.3-8.8c-2.4-3.7-4.2-7.9-5.3-12.8c-1.1-4.8-1.6-9.9-1.6-15.2
			c0-0.8,0-1.5,0-2.2s0.1-1.4,0.2-2.2c-1.1,2.2-2.1,4.6-2.9,7.2c-0.9,2.6-1.7,5.4-2.5,8.6c-2.3,3.1-5,6.3-8.1,9.4
			c-3,3.1-6.3,6-9.6,8.7c-3.4,2.7-6.9,4.8-10.6,6.4c-3.7,1.6-7.4,2.5-11.1,2.5c-3.6,0-6.6-0.8-9-2.3c-2.4-1.6-4.4-3.5-6-5.9
			c-1.6-2.3-2.7-4.9-3.4-7.7c-0.7-2.8-1.1-5.4-1.1-7.7c0-12.2,2.5-23.9,7.4-35.1c4.9-11.2,11-21.1,18.3-29.8
			c7.3-8.7,15.1-15.6,23.4-20.8c8.4-5.2,16.1-7.7,23.1-7.7c3.4,0,6.4,0.3,9,0.9c2.6,0.6,4.7,1.5,6.4,2.6c4.2-9.2,8.6-18.1,13.2-26.7
			c4.6-8.6,9-16.3,13.2-23c4.2-6.7,8.1-12.1,11.6-16.1c3.5-4,6.4-6,8.6-6c2.8,0,4.2,1.5,4.2,4.5c0,2.2-0.9,5.9-2.6,11.1
			c-1.7,5.2-3.9,11.4-6.4,18.4c-2.6,7-5.4,14.7-8.4,23c-3,8.3-5.9,16.5-8.6,24.7c-2.7,8.2-5,16.2-6.9,23.9c-2,7.7-3.1,14.6-3.5,20.5
			c-0.4,5.9,0.2,10.7,1.8,14.2c1.6,3.5,4.5,5.3,8.9,5.3c4.5,0,9.4-3.2,14.7-9.7C615.9,170,621.9,160.7,628.6,148.7z M526.1,178
			c1.9,0,4.1-0.9,6.7-2.6c2.6-1.7,5.2-3.9,7.9-6.6c2.7-2.7,5.2-5.5,7.7-8.4c2.5-3,4.8-5.8,6.8-8.4c1.4-4.2,3-8.6,4.7-13.1
			c1.7-4.5,3.5-9.1,5.4-13.6c-1.3-0.5-2.8-0.7-4.7-0.7c-2.8,0-6.1,1.3-9.7,4c-3.7,2.7-7.3,5.9-11,9.8c-3.7,3.9-7.1,8.2-10.3,12.9
			c-3.2,4.7-5.6,9-7.3,12.9c-1.6,3.9-2.3,7.2-1.9,9.8C520.8,176.6,522.7,178,526.1,178z"/>
		<linearGradient id="SVGID_22_" gradientUnits="userSpaceOnUse" x1="685.4403" y1="52.7646" x2="643.7028" y2="957.0775">
			<stop  offset="0" style="stop-color:#FFFFFF"/>
			<stop  offset="1" style="stop-color:#1D1D1B"/>
		</linearGradient>
		<path class="st46" d="M736.2,148.7c1.1-2,2.3-3.4,3.6-4.1c1.3-0.7,2.5-0.9,3.4-0.7c0.9,0.2,1.5,1,1.8,2.2c0.2,1.3-0.1,2.8-1.1,4.7
			c-4.1,7.7-9.2,13.7-15.5,18.1c-6.3,4.4-12.7,7-19.2,7.7c-6.6,0.8-12.7-0.2-18.5-3c-5.8-2.8-10.2-7.5-13.1-14.1
			c-2.2-5-2.8-9.1-1.8-12.4c1-3.3,2.7-5.7,5.2-7.2c2.4-1.5,5.2-2,8.2-1.6c3,0.4,5.5,1.8,7.4,4.3c0.9-4.7,0.9-8.6-0.2-11.7
			c-1.1-3.1-3.7-4.7-7.7-4.7c-3.4,0-7,1.4-10.8,4.1c-3.8,2.7-7.2,6.2-10.3,10.3c-3.1,4.1-5.9,8.6-8.2,13.5
			c-2.3,4.8-3.9,9.3-4.6,13.5c-0.7,4.1-0.4,7.6,0.9,10.3c1.3,2.7,3.9,4.1,7.9,4.1c2.7,0,5.3-0.7,7.9-2.2c2.6-1.5,5.1-3.3,7.6-5.5
			c3.1,1.3,6.5,3.2,10.1,5.9c3.6,2.7,6.4,6.3,8.4,11c-7,10.9-15.3,19.8-24.7,26.5c-9.5,6.7-19.1,10.1-29,10.1
			c-5.5,0-10.1-1.1-13.8-3.3c-3.8-2.2-6.7-5-8.9-8.3c-2.2-3.4-3.8-7-4.7-11c-0.9-4-1.4-7.9-1.4-11.6c0-6.4,1-13,3-19.8
			c2-6.8,4.8-13.4,8.3-19.9c3.5-6.5,7.7-12.6,12.7-18.3c4.9-5.7,10.2-10.7,15.9-15.1c5.7-4.4,11.7-7.8,18.1-10.3
			c6.3-2.5,12.7-3.8,19.1-3.8c4.5,0,8.2,1,11,2.9c2.8,2,5,4.4,6.7,7.4c1.6,3,2.7,6.3,3.3,9.8c0.5,3.6,0.8,7,0.8,10.3
			c0,4.2-0.3,8.4-0.9,12.5c-0.6,4.1-1.5,8.2-2.6,12.3c4.1,1.4,8.5,1.1,13.2-0.9C728.5,158.6,732.6,154.6,736.2,148.7z"/>
		<linearGradient id="SVGID_23_" gradientUnits="userSpaceOnUse" x1="797.694" y1="57.9455" x2="755.9565" y2="962.2584">
			<stop  offset="0" style="stop-color:#FFFFFF"/>
			<stop  offset="1" style="stop-color:#1D1D1B"/>
		</linearGradient>
		<path class="st47" d="M801.6,126.1c-1.9,0-4.3,1.2-7.3,3.5c-3,2.3-6.2,5.5-9.7,9.5c-3.5,4-7.1,8.6-10.7,14
			c-3.6,5.3-6.9,10.9-10,16.8c-3,5.9-5.6,11.9-7.7,18.1c-2.1,6.2-3.4,12.2-3.9,17.9c-0.3,3.1-0.2,5.6,0.2,7.5c0.5,1.9,1,3.4,1.6,4.5
			c0.8,1.9,0.5,3.2-0.9,4c-1.3,0.9-3,1.8-5.2,2.7c-2.2,0.9-4.8,1.3-7.7,1.3c-5.8,0-10.6-2.3-14.3-6.9c-3.8-4.6-5.6-11.5-5.6-20.8
			c0-5,0.9-10.7,2.8-17c1.9-6.3,4.3-12.8,7.3-19.5c3-6.6,6.3-13.1,10-19.5c3.7-6.3,7.3-12,10.8-16.9c3.5-4.9,6.8-8.9,9.7-12
			c3-3,5.3-4.6,7-4.6c4.1,0,6.1,2.1,6.1,6.3c0,0.8-0.5,2.3-1.5,4.7c-1,2.3-2.3,5.3-3.9,8.8c-1.6,3.5-3.2,7.4-4.8,11.7
			c-1.6,4.3-3.2,8.7-4.6,13.2c3.1-4.7,6.1-8.8,8.9-12.3c2.8-3.5,6.2-7.3,10.1-11.4c3.9-4.1,8.2-7.9,12.9-11.4
			c4.7-3.5,9.7-6.4,15.1-8.8c5.4-2.3,10.9-3.5,16.5-3.5c4.1,0,7.7,1.4,10.8,4.2c3.1,2.8,4.5,6.5,4,11c-0.2,2.3-1.3,5.6-3.3,9.7
			c-2,4.1-4.4,8.6-7,13.4c-2.7,4.8-5.4,9.6-8.1,14.5c-2.7,4.9-4.9,9.4-6.6,13.4c-1.6,4-2.5,7.3-2.6,9.8c-0.1,2.6,1.2,3.9,3.9,3.9
			c2.3,0,5.1-0.8,8.2-2.5c3.1-1.6,6.5-4.1,10.2-7.3c3.7-3.2,7.5-7.2,11.5-11.8c4-4.7,7.9-10,11.8-15.9c1.2-2,2.5-3.3,3.9-3.9
			c1.3-0.5,2.4-0.6,3.2-0.1c0.8,0.5,1.2,1.4,1.4,2.7c0.2,1.3-0.2,2.9-1.2,4.8c-2.3,4.1-5,8.8-8.1,14.1c-3,5.3-6.4,10.8-10.2,16.4
			c-3.8,5.6-7.7,11.1-12,16.5c-4.2,5.4-8.6,10.2-13.1,14.4c-4.5,4.2-9.1,7.6-13.7,10.2c-4.6,2.6-9.2,3.9-13.7,3.9
			c-4.1,0-7.4-1-10.1-2.9c-2.7-2-4.7-4.4-6.2-7.3c-1.5-2.9-2.5-6.1-2.9-9.5c-0.5-3.4-0.5-6.6-0.2-9.6c0.5-5.2,1.7-10.6,3.8-16.2
			c2-5.6,4.4-11.1,7-16.5c2.7-5.4,5.4-10.5,8.2-15.2c2.8-4.8,5.2-8.9,7.3-12.5c2-3.6,3.4-6.4,4-8.6
			C803.7,127.2,803.2,126.1,801.6,126.1z"/>
		<linearGradient id="SVGID_24_" gradientUnits="userSpaceOnUse" x1="873.834" y1="61.4597" x2="832.0966" y2="965.7726">
			<stop  offset="0" style="stop-color:#FFFFFF"/>
			<stop  offset="1" style="stop-color:#1D1D1B"/>
		</linearGradient>
		<path class="st48" d="M915.4,102c0,3.4-0.9,6.9-2.6,10.3c-1.7,3.4-3.8,6.6-6.1,9.5c-2.3,2.9-4.8,5.5-7.4,7.9
			c-2.6,2.3-4.7,4.2-6.2,5.6c-0.3-1.2-0.4-2.5-0.4-3.8c0.1-1.2,0.1-2.4,0.1-3.5c0-1.1,0.1-2.2,0.2-3.3c-0.8,1.6-1.4,3.2-1.8,4.8
			c-0.4,1.6-0.7,3.2-1.1,4.8c-0.3,1.7-0.5,3.5-0.5,5.4c0,3.1,0.5,6.4,1.4,9.7c0.9,3.4,1.9,7,2.9,10.8c1,3.8,2,7.9,2.9,12.3
			c0.9,4.4,1.4,9.1,1.4,14.3c0,6.1-1.2,11.6-3.6,16.6c-2.4,5-5.6,9.3-9.7,13c-4,3.7-8.7,6.5-14.1,8.4c-5.4,2-10.9,2.9-16.7,2.9
			c-7.5,0-13.5-1.4-17.9-4.1c-4.5-2.7-7.7-6.2-9.6-10.3c-2-4.1-2.9-8.6-2.8-13.4c0.1-4.8,0.9-9.2,2.3-13.4c1.5-4.1,3.5-7.6,6-10.3
			c2.5-2.7,5.2-4.1,8-4.1c0.8,0,1.1,0.7,0.8,2.2c-0.2,1.5-0.2,3.2,0.1,5c0.3,1.9,1.3,3.6,2.9,5c1.6,1.5,4.8,2.2,9.5,2.2
			c3.1,0,5.7-0.5,7.6-1.5c2-1,3.5-2.4,4.7-4.1c1.2-1.7,2-3.7,2.3-5.9c0.4-2.2,0.6-4.5,0.6-6.8c-0.2-5.3-1.3-11.5-3.5-18.5l-0.9,2.1
			c-0.9,1.6-2,2.5-3.2,2.8c-1.2,0.3-2.2,0.2-3-0.4c-0.9-0.5-1.5-1.4-1.9-2.5c-0.4-1.1-0.2-2.3,0.6-3.5c0.8-1.2,1.8-2.9,2.9-4.9
			c1.2-2,2.3-4.1,3.4-6.2c1.1-2.1,2.1-4,2.9-5.6c0.9-1.6,1.4-2.7,1.5-3.2c0.6-2.3,1.7-5.5,3.4-9.6c1.6-4.1,3.9-8.1,6.7-12.1
			c2.9-4,6.4-7.5,10.7-10.4c4.3-3,9.5-4.5,15.6-4.5c4.2,0,7.2,1.1,8.8,3.2C914.5,97.4,915.4,99.6,915.4,102z"/>
	</g>
	<g>
		<linearGradient id="SVGID_25_" gradientUnits="userSpaceOnUse" x1="61.1023" y1="23.949" x2="19.3648" y2="928.2619">
			<stop  offset="0" style="stop-color:#FFFFFF"/>
			<stop  offset="1" style="stop-color:#1D1D1B"/>
		</linearGradient>
		<path class="st49" d="M104.7,176.7c0.6,0.6,1.1,1.3,1.6,2.2c0.4,0.7,0.8,1.6,1.1,2.7c0.4,1.1,0.5,2.4,0.5,3.9
			c0,1.5-0.3,3.1-0.8,4.7c-0.6,1.6-1.5,3.2-2.8,4.6c-1.3,1.4-3,2.6-5.1,3.6c-2.1,0.9-4.8,1.4-7.9,1.4c-4.1,0-8.4-0.7-12.8-2.1
			c-4.5-1.4-9-3.2-13.7-5.3c-4.7-2.1-9.4-4.4-14.1-6.9c-4.7-2.5-9.3-4.8-13.8-6.9c-4.5-2.1-8.9-3.9-13.1-5.3
			c-4.2-1.4-8.1-2.1-11.7-2.1c-2.3,0-4.2,0.4-5.6,1.3c-1.4,0.9-2.5,2-3.4,3.5c-0.6-0.5-1.1-1.1-1.6-1.8c-0.4-0.6-0.7-1.3-1-2.1
			c-0.3-0.8-0.4-1.8-0.4-2.9c0-1.1,0.3-2.4,0.8-3.8c0.5-1.4,1.3-2.8,2.4-4c1.1-1.2,2.5-2.3,4.2-3.2c1.7-0.9,3.7-1.3,6-1.3
			c3.1,0,6.6,0.6,10.7,1.8c4,1.2,8.3,2.6,12.8,4.4c4.5,1.7,9.2,3.7,14,5.7c4.8,2.1,9.6,4,14.3,5.7c4.7,1.7,9.3,3.2,13.8,4.4
			c4.5,1.2,8.6,1.8,12.3,1.8c3.6,0,6.5-0.4,8.6-1.1C102,178.7,103.6,177.8,104.7,176.7z M90.3,92.9c-4.1,0-7.8,1.1-11.3,3.4
			c-3.5,2.3-6.7,5.2-9.8,8.9c-3.1,3.7-6,7.9-8.7,12.6c-2.8,4.7-5.4,9.5-8,14.4c-2.6,4.9-5.2,9.7-7.8,14.4c-2.6,4.7-5.3,8.8-8.1,12.4
			c-2.6-0.9-5.3-1.6-8.1-2.2c-2.9-0.5-5.2-0.9-7.1-1c2.4-2.6,4.7-5.7,6.9-9.5c2.2-3.8,4.4-7.9,6.6-12.3c2.2-4.4,4.5-9,6.8-13.8
			c2.3-4.8,4.7-9.4,7.2-14c2.5-4.6,5.1-8.9,7.9-13.1s5.7-7.8,8.9-10.9c3.2-3.1,6.6-5.6,10.3-7.4c3.7-1.8,7.6-2.8,11.9-2.8
			c2.8,0,5.3,0.6,7.7,1.7c2.4,1.2,4.4,2.6,6.1,4.4c1.7,1.8,3,3.8,4,6c1,2.2,1.4,4.4,1.4,6.5c0,1.3-0.1,2.5-0.3,3.6
			c-0.2,1.1-0.5,2-0.8,2.8c-0.3,0.9-0.7,1.7-1.2,2.5c-0.9-1.2-2.1-2.4-3.5-3.4c-1.2-0.9-2.7-1.6-4.4-2.4
			C95,93.3,92.8,92.9,90.3,92.9z"/>
		<linearGradient id="SVGID_26_" gradientUnits="userSpaceOnUse" x1="92.7115" y1="25.4079" x2="50.974" y2="929.7208">
			<stop  offset="0" style="stop-color:#FFFFFF"/>
			<stop  offset="1" style="stop-color:#1D1D1B"/>
		</linearGradient>
		<path class="st50" d="M107.5,129.5c0.5-0.9,1-1.4,1.5-1.6c0.5-0.2,1-0.2,1.3,0c0.4,0.2,0.6,0.6,0.7,1.1c0.1,0.6,0,1.2-0.3,2
			c-0.8,1.7-1.7,3.7-2.7,5.9c-1,2.2-2.2,4.5-3.5,6.9c-1.3,2.4-2.8,4.7-4.4,7c-1.7,2.3-3.6,4.3-5.7,6.1c-2.1,1.8-4.5,3.2-7.2,4.3
			c-2.7,1.1-5.6,1.6-8.9,1.6c-2,0-3.8-0.4-5.6-1.2c-1.7-0.8-3.3-1.9-4.6-3.2c-1.3-1.3-2.4-2.9-3.1-4.8c-0.8-1.8-1.1-3.8-1.1-5.9
			c0-3.9,0.9-7.9,2.6-12.2c1.7-4.2,3.9-8.1,6.7-11.6c2.8-3.5,5.9-6.4,9.3-8.7c3.5-2.3,6.9-3.5,10.4-3.5c1.7,0,3.1,0.3,4,0.9
			c1,0.6,1.7,1.3,2.2,2.1c0.5,0.8,0.8,1.6,0.9,2.5c0.1,0.9,0.1,1.5,0.1,2.1c0,2-0.5,4.2-1.4,6.6c-0.9,2.4-2.1,4.7-3.6,6.9
			c-1.5,2.1-3.1,3.9-4.9,5.4c-1.8,1.4-3.6,2.2-5.5,2.2c-1.2,0-2.2-0.2-3.2-0.6c-0.9-0.4-1.7-0.9-2.5-1.5c-0.1,0.4-0.1,0.8-0.1,1.2
			c0,0.4,0,0.8,0,1.1c0,2.4,0.9,4.1,2.7,5.3c1.8,1.2,4.1,1.5,6.9,0.9c2.8-0.6,5.9-2.2,9.2-4.9C101.2,138.9,104.4,134.9,107.5,129.5z
			 M92.7,119.1c-0.4,0-1,0.3-1.8,0.9c-0.8,0.6-1.7,1.5-2.7,2.6s-2,2.3-3.1,3.7c-1.1,1.4-2,2.8-2.9,4.3c0.3,0.1,0.5,0.1,0.7,0.1
			c0.2,0,0.4,0,0.7,0c1.3,0,2.7-0.6,4-1.8c1.4-1.2,2.6-2.6,3.6-4c1-1.5,1.7-2.8,2.1-4C93.7,119.7,93.5,119.1,92.7,119.1z"/>
		<linearGradient id="SVGID_27_" gradientUnits="userSpaceOnUse" x1="117.6591" y1="26.5593" x2="75.9216" y2="930.8722">
			<stop  offset="0" style="stop-color:#FFFFFF"/>
			<stop  offset="1" style="stop-color:#1D1D1B"/>
		</linearGradient>
		<path class="st51" d="M132.1,109.8c0,1.4-0.4,2.9-1.1,4.3c-0.7,1.4-1.6,2.8-2.6,4c-1,1.2-2,2.3-3.1,3.3s-2,1.8-2.6,2.4
			c-0.1-0.5-0.2-1.1-0.1-1.6c0-0.5,0-1,0-1.5c0-0.5,0-0.9,0.1-1.4c-0.3,0.7-0.6,1.3-0.7,2c-0.2,0.7-0.3,1.4-0.4,2
			c-0.1,0.7-0.2,1.5-0.2,2.3c0,1.3,0.2,2.7,0.6,4.1c0.4,1.4,0.8,2.9,1.2,4.5c0.4,1.6,0.8,3.3,1.2,5.2c0.4,1.8,0.6,3.8,0.6,6
			c0,2.6-0.5,4.9-1.5,7c-1,2.1-2.4,3.9-4.1,5.5c-1.7,1.5-3.7,2.7-5.9,3.6c-2.3,0.8-4.6,1.2-7,1.2c-3.2,0-5.7-0.6-7.6-1.7
			c-1.9-1.2-3.2-2.6-4-4.3c-0.8-1.7-1.2-3.6-1.2-5.6c0-2,0.4-3.9,1-5.6c0.6-1.7,1.5-3.2,2.5-4.3c1.1-1.2,2.2-1.7,3.4-1.7
			c0.3,0,0.4,0.3,0.3,0.9c-0.1,0.6-0.1,1.3,0,2.1c0.1,0.8,0.5,1.5,1.2,2.1c0.7,0.6,2,0.9,4,0.9c1.3,0,2.4-0.2,3.2-0.6
			c0.8-0.4,1.5-1,2-1.7c0.5-0.7,0.8-1.5,1-2.5c0.2-0.9,0.2-1.9,0.2-2.9c-0.1-2.2-0.6-4.8-1.5-7.8l-0.4,0.9c-0.4,0.7-0.8,1.1-1.3,1.2
			c-0.5,0.1-0.9,0.1-1.3-0.1c-0.4-0.2-0.6-0.6-0.8-1c-0.2-0.5-0.1-1,0.2-1.5c0.3-0.5,0.7-1.2,1.2-2.1c0.5-0.9,1-1.7,1.4-2.6
			c0.5-0.9,0.9-1.7,1.2-2.4c0.4-0.7,0.6-1.1,0.6-1.3c0.3-1,0.7-2.3,1.4-4c0.7-1.7,1.6-3.4,2.8-5.1c1.2-1.7,2.7-3.1,4.5-4.4
			c1.8-1.2,4-1.9,6.5-1.9c1.8,0,3,0.4,3.7,1.3C131.7,107.9,132.1,108.8,132.1,109.8z"/>
	</g>
	<g>
		<g>
			<g>
				<linearGradient id="SVGID_28_" gradientUnits="userSpaceOnUse" x1="443.9099" y1="41.617" x2="402.1723" y2="945.9299">
					<stop  offset="0" style="stop-color:#FFFFFF"/>
					<stop  offset="1" style="stop-color:#1D1D1B"/>
				</linearGradient>
				<path class="st52" d="M493.3,244.8c-0.4-0.3-1-0.3-1.4-0.5c-0.6-0.3-1.4-0.6-1.7-1.2c-1.1-2.2-3.2-3-5.2-3.7
					c-1.1-0.4-1.5-0.9-1.7-1.9c-1.5-5.8-3-11.7-4.6-17.5c-1.4-5.3-3.4-10.4-7.1-14.7c-2-2.4-3.8-4.9-4.6-8c-0.7-2.6-1.7-5.1-3.1-7.3
					c-3.7-6-7.7-11.7-11.3-17.7c-2.2-3.7-3.1-7,0-10.5c1.4-1.6,2.7-3.6,4.5-4.5c3.8-2,8-3.2,11.8-5.2c5-2.6,9.2-6.3,13.1-10.4
					c1.4-1.5,3-3,4.8-4.1c2.1-1.2,2.7-2.8,1.6-5c-0.3-0.7-0.3-1.6-0.2-2.4c0.2-1.9,1.2-3.8,0.8-5.5c-0.8-3.9-3.6-6.4-7.4-7.3
					c-3.4-0.8-6.9-1.3-10.3-2c-1.4-0.3-3-0.5-4.1-1.4c-1.7-1.4-3-3.3-4.4-5c-4.2-5.4-8.4-10.8-12.6-16.1c-1.6-2-3.5-3.8-5.2-5.7
					c-3.2-3.5-6.4-6.9-9.7-10.3c-1.3-1.3-2.9-1.1-4.2,0.3c-1.4,1.6-1.4,2.9,0,4.4c2.2,2.2,4.3,4.3,6.5,6.5c1.9,2,3.8,4.1,5.8,6.2
					c-1.8,0.2-3.3,0.4-4.7,0.6c-3.2,0.4-6.2,2.1-6.7,5.2c-0.6,3.6-2.2,5.4-5.4,6.4c-0.1,0-0.2,0.2-0.2,0.3c1.5,2.7,3.9,4,7.1,4.6
					c-0.3,0.8-0.3,1.8-0.7,2c-1.9,1-0.7,1.8,0.1,2.7c-1.1,1.3-2.2,2.7-3.2,4c-2.2,2.8-4.7,5.4-5.5,9c-0.7,2.9-0.2,6.1-1.7,8.9
					c-0.1,0.2-0.1,0.7,0,1c1.3,2.5,0.6,5-0.4,7.4c-0.8,1.9-2.3,3.6-2.8,5.5c-0.7,2.6-2.1,4.5-3.5,6.7c-2.7,4.1-5.1,8.3-4.8,13.5
					c0.3,5.1,0.7,10.3,1.2,15.4c0.2,2.3,0.6,4.6,0.7,6.9c0.1,0.8-0.3,1.6-0.5,2.3c-0.4,1.3-0.8,2.7-1.2,4.3
					c-5.3,2.3-10.1,6-13.4,11.4c-2.5,4.1-4.9,8.3-7.4,12.4c-1.6,2.7-2.9,5.8-5,8.1c-2.1,2.3-4.9,4-7.3,6c-1.9,1.6-3.8,3.3-4.4,6
					c-0.5,2.2,1,5.3,3.3,6c3,0.9,5,0.3,6.5-1.7c2.4-3.1,5.1-6.2,8.2-8.6c1.9-1.5,3-3.1,4.2-5c1.6-2.5,3.5-4.8,5.6-6.9
					c1.4-1.4,3.4-2.3,5-3.5c3.1-2.5,6-5.2,9-7.8c2.2-1.9,4.3-3.9,6.5-5.9c1.3-1.1,2.7-2.1,3.9-3.3c3.1-3.3,4.5-7.1,4.3-11.7
					c-0.1-3,0.4-6.1,0.6-9.1c0.2-0.1,0.5-0.3,0.7-0.4c2.2,1.6,4.5,3.1,6.5,4.9c3.8,3.4,7.3,7.1,11,10.6c3.1,3,7.4,4.7,9.5,8.8
					c1.5,2.8,3.5,5.6,4.3,8.6c0.7,2.5,1,5.1,2.8,7.1c0.8,0.9,1.9,1.6,2.5,2.5c3,4.5,5.5,9.1,6.9,14.4c1.1,4.1,2.8,6.6,8.7,6.7
					c2.7,0,5.5-0.1,8.2,0c1.7,0.1,3.1-0.4,3.6-1.9C496,246.9,494.6,245.8,493.3,244.8z M466.7,133.2c0.1-0.4,0.6-0.8,1-1
					c2.1-0.9,4.2-1.8,6-2.6c0.8,0.6,1.3,1.1,1.9,1.6c0.2,0.2,0.5,0.3,0.6,0.5c1,1.5-0.1,5.9-1.7,6.7c-3.1,1.5-6.3,2.9-9.7,4.5
					C465.5,139.3,466,136.3,466.7,133.2z M455.2,106.4l8.4,7.8c-3.5-0.3-6.7-0.5-10-0.7C454.2,111.2,454.7,108.9,455.2,106.4z"/>
			</g>
		</g>
		<g>
			<linearGradient id="SVGID_29_" gradientUnits="userSpaceOnUse" x1="470.3058" y1="42.8353" x2="428.5682" y2="947.1482">
				<stop  offset="0" style="stop-color:#FFFFFF"/>
				<stop  offset="1" style="stop-color:#1D1D1B"/>
			</linearGradient>
			<path class="st53" d="M467.5,130.1c-1.1,0.1-2.2,0.4-3.2,0.9l-2.1,1c-0.1,0-0.2,0.1-0.2,0.1c-0.6,0.4-2.4,0.2-2.4,0.8l-1.2,10.2
				c0,0.5,1.5,0.7,2,0.6l4.1-0.6c0.2,0,0.4-0.1,0.5-0.3l8.7-13c0,0,0,0,0,0L467.5,130.1z"/>
		</g>
	</g>
</g>
</svg>
