<?xml version="1.0" encoding="utf-8"?>
<!-- Generator: Adobe Illustrator 19.2.0, SVG Export Plug-In . SVG Version: 6.00 Build 0)  -->
<svg version="1.1" id="Calque_1" xmlns="http://www.w3.org/2000/svg" xmlns:xlink="http://www.w3.org/1999/xlink" x="0px" y="0px"
	 viewBox="0 0 927 431.1" style="enable-background:new 0 0 927 431.1;" xml:space="preserve">
<style type="text/css">
	.st0{fill:#F6F6F6;}
	.st1{clip-path:url(#SVGID_2_);fill:#7BB629;}
	.st2{clip-path:url(#SVGID_4_);fill:#7CB629;}
	.st3{clip-path:url(#SVGID_6_);fill:#7EB728;}
	.st4{clip-path:url(#SVGID_8_);fill:#7FB728;}
	.st5{clip-path:url(#SVGID_10_);fill:#80B728;}
	.st6{clip-path:url(#SVGID_12_);fill:#81B727;}
	.st7{clip-path:url(#SVGID_14_);fill:#84B727;}
	.st8{clip-path:url(#SVGID_16_);fill:#85B826;}
	.st9{clip-path:url(#SVGID_18_);fill:#83B727;}
	.st10{clip-path:url(#SVGID_20_);fill:#84B727;}
	.st11{clip-path:url(#SVGID_22_);fill:#85B826;}
	.st12{clip-path:url(#SVGID_24_);fill:#86B826;}
	.st13{clip-path:url(#SVGID_26_);fill:#86B826;}
	.st14{clip-path:url(#SVGID_28_);fill:#88B825;}
	.st15{clip-path:url(#SVGID_30_);fill:#89B825;}
	.st16{clip-path:url(#SVGID_32_);fill:#8AB825;}
	.st17{clip-path:url(#SVGID_34_);fill:#8BB924;}
	.st18{clip-path:url(#SVGID_36_);fill:#8BB924;}
	.st19{clip-path:url(#SVGID_38_);fill:#8CB924;}
	.st20{clip-path:url(#SVGID_40_);fill:#8DB923;}
	.st21{clip-path:url(#SVGID_42_);fill:#8FB923;}
	.st22{clip-path:url(#SVGID_44_);fill:#90B923;}
	.st23{clip-path:url(#SVGID_46_);fill:#91B922;}
	.st24{clip-path:url(#SVGID_48_);fill:#8FB923;}
	.st25{clip-path:url(#SVGID_50_);fill:#90B923;}
	.st26{clip-path:url(#SVGID_52_);fill:#91B922;}
	.st27{clip-path:url(#SVGID_54_);fill:#92B922;}
	.st28{clip-path:url(#SVGID_56_);fill:#93BA21;}
	.st29{clip-path:url(#SVGID_58_);fill:#93BA21;}
	.st30{clip-path:url(#SVGID_60_);fill:#94BA21;}
	.st31{clip-path:url(#SVGID_62_);fill:#95BA21;}
	.st32{clip-path:url(#SVGID_64_);fill:#96BA20;}
	.st33{clip-path:url(#SVGID_66_);fill:#97BA20;}
	.st34{clip-path:url(#SVGID_68_);fill:#98BA1F;}
	.st35{clip-path:url(#SVGID_70_);fill:#99BA1F;}
	.st36{clip-path:url(#SVGID_72_);fill:#97BA20;}
	.st37{clip-path:url(#SVGID_74_);fill:#98BA1F;}
	.st38{clip-path:url(#SVGID_76_);fill:#99BA1F;}
	.st39{clip-path:url(#SVGID_78_);fill:#9ABB1E;}
	.st40{clip-path:url(#SVGID_80_);fill:#9BBB1E;}
	.st41{clip-path:url(#SVGID_82_);fill:#9CBB1D;}
	.st42{clip-path:url(#SVGID_84_);fill:#9DBB1D;}
	.st43{clip-path:url(#SVGID_86_);fill:#9BBB1E;}
	.st44{clip-path:url(#SVGID_88_);fill:#9CBB1D;}
	.st45{clip-path:url(#SVGID_90_);fill:#9DBB1D;}
	.st46{clip-path:url(#SVGID_92_);fill:#9EBB1C;}
	.st47{clip-path:url(#SVGID_94_);fill:#9FBB1C;}
	.st48{clip-path:url(#SVGID_96_);fill:#9FBB1C;}
	.st49{clip-path:url(#SVGID_98_);fill:#A0BB1C;}
	.st50{clip-path:url(#SVGID_100_);fill:#A1BC1B;}
	.st51{fill:#EDEDED;}
</style>
<g>
	<g>
		<g>
			<path class="st0" d="M481.8,230.7c-0.3-0.2-0.8-0.2-1.1-0.4c-0.5-0.3-1.1-0.5-1.3-1c-0.9-1.7-2.6-2.4-4.1-2.9
				c-0.9-0.3-1.2-0.7-1.4-1.5c-1.2-4.6-2.4-9.3-3.7-13.9c-1.2-4.2-2.7-8.3-5.6-11.7c-1.6-1.9-3-3.9-3.7-6.4c-0.5-2-1.4-4.1-2.5-5.8
				c-2.9-4.7-6.2-9.3-9-14.1c-1.8-3-2.5-5.6,0-8.3c1.1-1.3,2.1-2.8,3.5-3.6c3-1.6,6.4-2.6,9.4-4.1c4-2,7.3-5,10.4-8.2
				c1.1-1.2,2.4-2.4,3.8-3.2c1.7-1,2.2-2.2,1.2-4c-0.3-0.5-0.3-1.3-0.2-1.9c0.2-1.5,0.9-3,0.6-4.4c-0.7-3.1-2.8-5.1-5.9-5.8
				c-2.7-0.7-5.5-1-8.2-1.6c-1.1-0.2-2.4-0.4-3.2-1.1c-1.4-1.1-2.4-2.6-3.5-4c-3.4-4.3-6.7-8.6-10.1-12.9c-1.3-1.6-2.8-3-4.2-4.6
				c-2.6-2.7-5.1-5.5-7.7-8.2c-1-1.1-2.3-0.9-3.3,0.3c-1.1,1.2-1.2,2.3,0,3.5c1.7,1.7,3.5,3.4,5.2,5.2c1.5,1.6,3,3.2,4.6,4.9
				c-1.4,0.2-2.6,0.3-3.8,0.4c-2.6,0.3-4.9,1.7-5.3,4.1c-0.5,2.9-1.8,4.3-4.3,5.1c-0.1,0-0.1,0.2-0.2,0.2c1.2,2.2,3.1,3.2,5.6,3.7
				c-0.2,0.6-0.2,1.4-0.6,1.6c-1.5,0.8-0.5,1.4,0.1,2.2c-0.8,1.1-1.7,2.1-2.5,3.2c-1.7,2.2-3.7,4.3-4.4,7.2
				c-0.5,2.3-0.2,4.9-1.4,7.1c-0.1,0.2-0.1,0.6,0,0.8c1.1,2,0.5,4-0.3,5.9c-0.6,1.5-1.8,2.9-2.2,4.4c-0.5,2-1.7,3.6-2.8,5.3
				c-2.1,3.3-4.1,6.6-3.8,10.7c0.3,4.1,0.6,8.2,0.9,12.2c0.2,1.8,0.4,3.6,0.6,5.5c0,0.6-0.2,1.3-0.4,1.9c-0.3,1.1-0.6,2.1-1,3.4
				c-4.3,1.8-8.1,4.7-10.7,9.1c-2,3.3-3.9,6.6-5.9,9.9c-1.3,2.2-2.3,4.6-4,6.5c-1.6,1.9-3.9,3.2-5.8,4.8c-1.5,1.3-3,2.7-3.5,4.8
				c-0.4,1.8,0.8,4.2,2.6,4.8c2.4,0.7,4,0.2,5.2-1.3c1.9-2.5,4.1-4.9,6.5-6.9c1.5-1.2,2.4-2.5,3.4-4c1.3-2,2.8-3.8,4.5-5.5
				c1.1-1.1,2.7-1.8,3.9-2.8c2.4-2,4.8-4.1,7.2-6.2c1.7-1.5,3.5-3.1,5.2-4.7c1-0.9,2.2-1.7,3.1-2.6c2.5-2.6,3.6-5.7,3.4-9.3
				c-0.1-2.4,0.3-4.8,0.5-7.3c0.2-0.1,0.4-0.2,0.6-0.3c1.7,1.3,3.6,2.5,5.2,3.9c3,2.7,5.8,5.6,8.7,8.4c2.5,2.4,5.9,3.8,7.6,7
				c1.2,2.3,2.8,4.5,3.4,6.9c0.5,2,0.8,4.1,2.3,5.7c0.7,0.7,1.5,1.2,2,2c2.4,3.6,4.4,7.2,5.5,11.4c0.9,3.3,2.2,5.2,6.9,5.3
				c2.2,0,4.3,0,6.5,0c1.3,0,2.5-0.3,2.9-1.5C483.9,232.4,482.7,231.5,481.8,230.7z M455.3,142.3c0.1-0.3,3.6-1.1,6-1.2
				c1.6-0.8,3.3-1.5,4.8-2.1c0.6,0.5,1.1,0.9,1.5,1.3c0.2,0.1,0.4,0.2,0.5,0.4c0.8,1.2-0.1,4.7-1.4,5.3c-2.5,1.2-10.9,3.7-13.6,5
				C452.4,148.5,454.8,144.7,455.3,142.3z M451.4,120.6l6.7,6.2c-2.8-0.2-5.3-0.4-7.9-0.6C450.6,124.4,451,122.5,451.4,120.6z"/>
		</g>
	</g>
	<g>
		<path class="st0" d="M196.3,238c7.2,0,14.1-3.4,20.9-10.3c6.8-6.8,13.6-15.8,20.5-27c6.9-11.1,14-23.8,21.2-38.1
			c7.2-14.2,15-28.8,23.2-43.7c8.2-14.9,17-29.5,26.4-43.7S328,48.3,339,37.1c11-11.1,22.9-20.1,35.8-27C387.6,3.4,401.7,0,417,0
			c9.3,0,17.9,1.2,25.9,3.7c8,2.4,14.8,5.7,20.5,9.9s10.2,8.9,13.4,14.2c3.3,5.3,4.9,10.8,4.9,16.5c0,3.6-0.5,6.8-1.3,9.8
			c-0.9,2.9-1.8,5.5-2.8,7.6c-1.1,2.4-2.4,4.6-3.9,6.6c-3.1-3.3-6.9-6.3-11.5-9c-3.9-2.3-8.9-4.4-15-6.3c-6.1-2-13.3-2.9-21.6-2.9
			c-13.5,0-26.3,3-38.5,9c-12.1,6-23.7,14-34.8,23.9c-11.1,9.9-21.7,21.2-31.9,33.8c-10.2,12.6-20.1,25.5-29.9,38.6
			s-19.3,26-28.7,38.6c-9.4,12.6-18.8,23.9-28.3,33.8c-9.5,9.9-19.2,17.9-29.1,23.9c-9.8,6-20,9-30.4,9h-0.5H172
			c-2.3,0-4.7-0.5-7.2-1.3c-2.5-0.9-4.8-2.4-6.8-4.5s-3.7-4.9-5.1-8.3c-1.4-3.4-2.1-7.7-2.1-12.9c0-4.9,1-10.4,3.1-16.6
			c2-6.2,4.6-12.7,7.7-19.5c3.1-6.8,6.4-13.9,9.9-21.2s6.8-14.6,9.9-22c3.1-7.3,5.7-14.5,7.7-21.5c2-7,3.1-13.7,3.1-20
			c0-10.3-3.4-18.5-10.1-24.7c-6.8-6.2-16-9.3-27.7-9.3c-2.6,0-5,0.2-7.1,0.5s-4.1,0.7-5.9,1.2v-0.2c2.3-6,5.5-11.4,9.8-16.1
			c3.7-4.1,8.7-7.8,14.9-11.1s14.2-5,23.9-5c9.8,0,17.8,2.1,24,6.2c6.3,4.2,11.2,9.3,14.9,15.4s6.2,12.6,7.7,19.4s2.2,13,2.2,18.6
			c0,8.3-1.8,17.3-5.2,27c-3.5,9.7-7.7,19.4-12.5,29.1c-4.8,9.7-9.8,19-14.9,28c-5.1,9-9.2,16.9-12.3,23.8
			c-3.1,6.9-4.7,12.5-4.9,16.6C188.8,236,191.2,238,196.3,238z"/>
		<path class="st0" d="M403.3,154.8c1.1-2.1,2.4-3.5,3.7-4c1.3-0.6,2.4-0.6,3.3-0.1s1.5,1.4,1.8,2.8c0.3,1.4,0.1,3.1-0.7,5
			c-2,4.2-4.2,9.1-6.7,14.6s-5.4,11.2-8.5,17.1c-3.2,5.9-6.8,11.6-11,17.2c-4.2,5.6-8.9,10.6-14.2,15c-5.3,4.4-11.2,7.9-17.8,10.6
			c-6.6,2.7-14,4-22.1,4c-4.9,0-9.5-1-13.8-2.9c-4.3-2-8.1-4.6-11.4-7.9c-3.3-3.3-5.8-7.3-7.7-11.8c-1.9-4.6-2.8-9.4-2.8-14.6
			c0-9.6,2.1-19.7,6.3-30.2c4.2-10.5,9.8-20.1,16.6-28.8c6.8-8.7,14.5-15.9,23.1-21.6c8.5-5.7,17.1-8.5,25.8-8.5
			c4.2,0,7.6,0.7,10,2.2s4.3,3.2,5.5,5.1s2,4,2.2,6.1s0.4,3.8,0.4,5.1c0,4.9-1.1,10.3-3.4,16.4c-2.3,6-5.2,11.7-8.9,17
			c-3.7,5.3-7.7,9.7-12.2,13.3s-9,5.4-13.6,5.4c-2.9,0-5.5-0.5-7.8-1.5s-4.3-2.2-6.1-3.7c-0.2,1-0.3,2-0.4,2.9
			c-0.1,1-0.1,1.9-0.1,2.7c0,5.9,2.2,10.3,6.7,13.2s10.2,3.7,17.1,2.2s14.5-5.5,22.8-12.2C387.7,178.1,395.6,168.1,403.3,154.8z
			 M366.7,129.2c-1,0-2.5,0.8-4.5,2.3s-4.3,3.7-6.7,6.3s-5,5.7-7.6,9.2c-2.6,3.4-5,7-7.1,10.7c0.6,0.2,1.2,0.3,1.7,0.4
			c0.5,0.1,1.1,0.1,1.7,0.1c3.3,0,6.6-1.5,10-4.5s6.4-6.3,8.9-10s4.2-7,5.1-10C369.2,130.7,368.6,129.2,366.7,129.2z"/>
		<path class="st0" d="M631.1,154.8c1.1-2.1,2.4-3.5,3.7-4c1.3-0.6,2.4-0.6,3.4-0.1s1.6,1.4,1.8,2.8c0.2,1.4,0,3.1-0.9,5
			c-2,4.2-4.2,9.1-6.7,14.6s-5.3,11.2-8.3,17.1c-3,5.9-6.3,11.6-9.8,17.2c-3.5,5.6-7.2,10.6-11.2,15s-8.1,7.9-12.5,10.6
			c-4.3,2.7-8.8,4-13.6,4c-5.4,0-10-1.1-13.9-3.4s-7.1-5.3-9.6-9.2c-2.5-3.8-4.4-8.3-5.5-13.3s-1.7-10.3-1.7-15.9c0-0.8,0-1.6,0-2.3
			s0.1-1.5,0.2-2.3c-1.1,2.3-2.2,4.8-3.1,7.4c-0.9,2.7-1.8,5.7-2.6,8.9c-2.4,3.3-5.2,6.5-8.4,9.8s-6.5,6.3-10,9
			c-3.5,2.8-7.2,5-11,6.7s-7.7,2.6-11.6,2.6c-3.7,0-6.9-0.8-9.4-2.4c-2.5-1.6-4.6-3.7-6.2-6.1c-1.6-2.4-2.8-5.1-3.5-8.1
			s-1.1-5.6-1.1-8.1c0-12.7,2.6-24.9,7.7-36.5s11.5-22,19-31c7.6-9,15.7-16.2,24.4-21.6s16.7-8.1,24-8.1c3.6,0,6.7,0.3,9.4,1
			s4.9,1.5,6.7,2.7c4.4-9.6,9-18.9,13.8-27.8s9.4-16.9,13.8-23.9c4.4-7,8.4-12.6,12.1-16.7s6.6-6.2,8.9-6.2c2.9,0,4.4,1.5,4.4,4.6
			c0,2.3-0.9,6.1-2.7,11.6s-4,11.8-6.7,19.2c-2.7,7.3-5.6,15.3-8.8,23.9s-6.1,17.2-8.9,25.8c-2.8,8.5-5.2,16.8-7.2,24.9
			c-2,8.1-3.3,15.2-3.7,21.4s0.2,11.1,1.8,14.8s4.7,5.5,9.3,5.5c4.7,0,9.8-3.4,15.3-10.1C617.9,177,624.1,167.3,631.1,154.8z
			 M524.4,185.3c2,0,4.3-0.9,7-2.7s5.4-4.1,8.2-6.8c2.8-2.8,5.5-5.7,8.1-8.8s5-6,7.1-8.8c1.5-4.4,3.1-8.9,4.9-13.7
			c1.8-4.7,3.7-9.4,5.6-14.2c-1.3-0.5-2.9-0.7-4.9-0.7c-2.9,0-6.3,1.4-10.1,4.2s-7.7,6.2-11.5,10.3s-7.4,8.5-10.7,13.4
			s-5.9,9.4-7.6,13.4c-1.7,4.1-2.4,7.5-2,10.3C518.8,183.9,520.8,185.3,524.4,185.3z"/>
		<path class="st0" d="M741.9,154.8c1.1-2.1,2.4-3.5,3.8-4.3c1.4-0.7,2.6-1,3.5-0.7s1.6,1,1.8,2.3s-0.1,2.9-1.1,4.9
			c-4.2,8-9.6,14.2-16.1,18.8s-13.2,7.2-20,8.1c-6.8,0.8-13.3-0.2-19.3-3.2c-6-2.9-10.6-7.8-13.7-14.6c-2.3-5.2-2.9-9.5-1.8-12.9
			c1.1-3.4,2.8-5.9,5.4-7.4c2.5-1.5,5.4-2.1,8.5-1.7c3.2,0.4,5.7,1.9,7.7,4.5c1-4.9,0.9-8.9-0.2-12.2c-1.1-3.3-3.8-4.9-8.1-4.9
			c-3.6,0-7.3,1.4-11.2,4.3c-3.9,2.8-7.5,6.4-10.7,10.7c-3.3,4.3-6.1,9-8.5,14s-4,9.7-4.8,14c-0.7,4.3-0.4,7.9,1,10.7
			s4.1,4.3,8.2,4.3c2.8,0,5.5-0.8,8.2-2.3s5.3-3.5,7.9-5.7c3.3,1.3,6.8,3.3,10.5,6.1s6.7,6.6,8.8,11.5
			c-7.3,11.4-15.9,20.6-25.8,27.6c-9.8,7-19.9,10.5-30.2,10.5c-5.7,0-10.5-1.1-14.4-3.4s-7-5.2-9.3-8.7s-3.9-7.3-4.9-11.5
			s-1.5-8.2-1.5-12.1c0-6.7,1.1-13.6,3.2-20.6c2.1-7.1,5-14,8.7-20.8s8.1-13.1,13.2-19c5.1-5.9,10.7-11.2,16.6-15.7
			c5.9-4.6,12.2-8.1,18.8-10.7s13.2-3.9,19.9-3.9c4.7,0,8.5,1,11.5,3.1c2.9,2,5.2,4.6,7,7.7c1.7,3.1,2.8,6.5,3.4,10.3
			c0.6,3.7,0.9,7.3,0.9,10.7c0,4.4-0.3,8.8-1,13.1s-1.5,8.6-2.7,12.8c4.2,1.5,8.8,1.1,13.8-1C733.8,165.1,738.2,161,741.9,154.8z"/>
		<path class="st0" d="M808.8,131.4c-2,0-4.5,1.2-7.6,3.7c-3.1,2.4-6.5,5.7-10.1,9.9c-3.7,4.2-7.4,9-11.1,14.5
			c-3.7,5.5-7.2,11.4-10.4,17.5s-5.9,12.4-8.1,18.8c-2.2,6.4-3.5,12.7-4,18.7c-0.3,3.3-0.2,5.9,0.2,7.8s1.1,3.5,1.7,4.6
			c0.8,2,0.5,3.3-1,4.2c-1.3,1-3.1,1.9-5.4,2.8c-2.3,0.9-5,1.3-8.1,1.3c-6,0-11-2.4-14.9-7.2s-5.9-12-5.9-21.6
			c0-5.2,1-11.1,2.9-17.7c2-6.6,4.5-13.3,7.6-20.3c3.1-6.9,6.6-13.7,10.4-20.3c3.8-6.6,7.6-12.5,11.2-17.6c3.7-5.1,7-9.3,10.1-12.5
			s5.5-4.8,7.3-4.8c4.2,0,6.3,2.2,6.3,6.6c0,0.8-0.5,2.4-1.6,4.9c-1.1,2.4-2.4,5.5-4,9.2s-3.3,7.7-5,12.2s-3.3,9.1-4.8,13.8
			c3.3-4.9,6.3-9.2,9.3-12.8s6.4-7.6,10.5-11.8s8.5-8.2,13.4-11.8c4.9-3.7,10.1-6.7,15.7-9.2s11.4-3.7,17.2-3.7
			c4.2,0,8,1.5,11.2,4.4c3.3,2.9,4.6,6.8,4.2,11.5c-0.2,2.4-1.3,5.8-3.4,10.1c-2.1,4.3-4.6,9-7.3,13.9c-2.8,5-5.6,10-8.4,15.1
			c-2.8,5.1-5.1,9.8-6.8,13.9c-1.7,4.2-2.6,7.6-2.7,10.3c-0.1,2.7,1.3,4,4,4c2.4,0,5.3-0.9,8.5-2.6c3.3-1.7,6.8-4.2,10.6-7.6
			c3.8-3.3,7.8-7.4,12-12.3s8.3-10.4,12.3-16.6c1.3-2.1,2.6-3.5,4-4c1.4-0.6,2.5-0.6,3.3-0.1s1.3,1.4,1.5,2.8c0.2,1.4-0.2,3.1-1.2,5
			c-2.4,4.2-5.2,9.1-8.4,14.6s-6.7,11.2-10.6,17.1c-3.9,5.9-8.1,11.6-12.5,17.2c-4.4,5.6-9,10.6-13.7,15s-9.5,7.9-14.3,10.6
			c-4.8,2.7-9.6,4-14.3,4c-4.2,0-7.7-1-10.5-3.1c-2.8-2-4.9-4.6-6.5-7.6c-1.5-3-2.6-6.3-3.1-9.9c-0.5-3.6-0.6-6.9-0.2-10
			c0.5-5.4,1.8-11,3.9-16.8c2.1-5.9,4.6-11.6,7.3-17.2c2.8-5.6,5.6-10.9,8.5-15.9s5.5-9.3,7.6-13.1c2.1-3.7,3.5-6.7,4.2-8.9
			C810.9,132.4,810.5,131.4,808.8,131.4z"/>
		<path class="st0" d="M926,106.2c0,3.6-0.9,7.2-2.7,10.7c-1.8,3.6-3.9,6.9-6.3,9.9c-2.4,3-5,5.7-7.7,8.2s-4.8,4.4-6.5,5.9
			c-0.3-1.3-0.5-2.6-0.4-3.9c0.1-1.3,0.1-2.5,0.1-3.7c0-1.1,0.1-2.3,0.2-3.4c-0.8,1.6-1.4,3.3-1.8,5c-0.4,1.7-0.8,3.4-1.1,5
			c-0.3,1.8-0.5,3.7-0.5,5.6c0,3.3,0.5,6.6,1.5,10.1s2,7.2,3.1,11.2s2.1,8.3,3.1,12.8c1,4.6,1.5,9.5,1.5,14.9
			c0,6.3-1.3,12.1-3.8,17.3s-5.9,9.7-10.1,13.6c-4.2,3.8-9.1,6.8-14.6,8.8s-11.4,3.1-17.4,3.1c-7.8,0-14-1.4-18.7-4.3
			s-8-6.4-10-10.7s-3-8.9-2.9-13.9s0.9-9.6,2.4-13.9c1.5-4.3,3.6-7.9,6.2-10.7c2.6-2.8,5.4-4.3,8.3-4.3c0.8,0,1.1,0.8,0.9,2.3
			c-0.2,1.5-0.2,3.3,0.1,5.2c0.3,2,1.3,3.7,3.1,5.2c1.7,1.5,5,2.3,9.9,2.3c3.3,0,5.9-0.5,7.9-1.6s3.7-2.5,4.9-4.3s2-3.8,2.4-6.1
			s0.6-4.6,0.6-7.1c-0.2-5.5-1.4-12-3.7-19.3l-1,2.2c-1,1.6-2.1,2.6-3.3,2.9c-1.2,0.3-2.3,0.2-3.2-0.4c-0.9-0.6-1.5-1.4-2-2.6
			c-0.4-1.1-0.2-2.4,0.6-3.7s1.8-3,3.1-5.1c1.2-2.1,2.4-4.3,3.5-6.5s2.2-4.2,3.1-5.9c0.9-1.7,1.4-2.8,1.6-3.3
			c0.6-2.4,1.8-5.8,3.5-10s4-8.4,7-12.6s6.7-7.8,11.1-10.9c4.4-3.1,9.8-4.6,16.2-4.6c4.4,0,7.4,1.1,9.2,3.3S926,103.8,926,106.2z"/>
	</g>
	<g>
		<path class="st0" d="M112.9,183.2c0.6,0.6,1.1,1.3,1.6,2.2c0.4,0.7,0.8,1.6,1.1,2.7c0.4,1.1,0.5,2.4,0.5,3.9s-0.3,3.1-0.8,4.7
			c-0.6,1.6-1.5,3.2-2.7,4.6c-1.3,1.4-3,2.6-5.1,3.5s-4.7,1.4-7.9,1.4c-4,0-8.3-0.7-12.7-2.1c-4.4-1.4-9-3.1-13.6-5.2
			c-4.6-2.1-9.3-4.4-13.9-6.8c-4.7-2.5-9.2-4.8-13.7-6.8c-4.5-2.1-8.8-3.8-13-5.2s-8-2.1-11.6-2.1c-2.3,0-4.1,0.4-5.5,1.3
			c-1.4,0.8-2.5,2-3.4,3.4c-0.6-0.5-1.1-1-1.6-1.8c-0.4-0.6-0.7-1.3-1-2.1s-0.4-1.8-0.4-2.9c0-1.1,0.3-2.4,0.8-3.8
			c0.5-1.4,1.3-2.8,2.4-4s2.5-2.3,4.2-3.1s3.7-1.3,6-1.3c3.1,0,6.6,0.6,10.6,1.8s8.2,2.6,12.7,4.3s9.1,3.6,13.8,5.7
			c4.8,2.1,9.5,3.9,14.2,5.7c4.7,1.7,9.3,3.2,13.7,4.3c4.4,1.2,8.5,1.8,12.2,1.8c3.6,0,6.4-0.4,8.5-1.1
			C110.2,185.1,111.8,184.2,112.9,183.2z M98.6,100.2c-4,0-7.8,1.1-11.2,3.4s-6.6,5.2-9.7,8.8c-3,3.7-5.9,7.8-8.7,12.5
			c-2.7,4.7-5.4,9.4-8,14.3s-5.2,9.6-7.8,14.2c-2.6,4.6-5.3,8.7-8,12.3c-2.5-0.9-5.2-1.6-8.1-2.2c-2.8-0.5-5.2-0.8-7-1
			c2.3-2.5,4.6-5.7,6.8-9.4s4.4-7.8,6.5-12.2c2.2-4.4,4.4-8.9,6.7-13.6s4.7-9.4,7.1-13.9c2.5-4.5,5.1-8.8,7.8-13
			c2.7-4.1,5.7-7.7,8.8-10.8c3.2-3.1,6.5-5.5,10.2-7.3c3.6-1.8,7.5-2.7,11.8-2.7c2.7,0,5.3,0.6,7.6,1.7c2.3,1.1,4.4,2.6,6.1,4.4
			s3,3.8,4,6c0.9,2.2,1.4,4.3,1.4,6.4c0,1.3-0.1,2.5-0.3,3.6c-0.2,1.1-0.5,2-0.8,2.8c-0.3,0.9-0.7,1.7-1.2,2.4
			c-0.9-1.2-2.1-2.3-3.4-3.3c-1.2-0.8-2.6-1.6-4.4-2.3C103.2,100.6,101.1,100.2,98.6,100.2z"/>
		<path class="st0" d="M115.6,136.4c0.5-0.8,0.9-1.4,1.5-1.6c0.5-0.2,1-0.2,1.3,0c0.4,0.2,0.6,0.6,0.7,1.1c0.1,0.6,0,1.2-0.3,2
			c-0.8,1.7-1.7,3.7-2.7,5.9s-2.2,4.5-3.4,6.8c-1.3,2.3-2.7,4.6-4.4,6.9c-1.7,2.2-3.6,4.3-5.7,6c-2.1,1.8-4.5,3.2-7.1,4.3
			s-5.6,1.6-8.8,1.6c-2,0-3.8-0.4-5.5-1.2s-3.2-1.8-4.5-3.2c-1.3-1.3-2.3-2.9-3.1-4.7c-0.7-1.8-1.1-3.8-1.1-5.9
			c0-3.8,0.8-7.9,2.5-12.1c1.7-4.2,3.9-8,6.6-11.5c2.7-3.5,5.8-6.4,9.2-8.7c3.4-2.3,6.9-3.4,10.3-3.4c1.7,0,3,0.3,4,0.9
			s1.7,1.3,2.2,2.1c0.5,0.8,0.8,1.6,0.9,2.4s0.1,1.5,0.1,2.1c0,2-0.5,4.1-1.4,6.5c-0.9,2.4-2.1,4.7-3.6,6.8s-3.1,3.9-4.9,5.3
			c-1.8,1.4-3.6,2.2-5.4,2.2c-1.2,0-2.2-0.2-3.1-0.6c-0.9-0.4-1.7-0.9-2.4-1.5c-0.1,0.4-0.1,0.8-0.1,1.2s0,0.8,0,1.1
			c0,2.3,0.9,4.1,2.7,5.3c1.8,1.2,4.1,1.5,6.8,0.9c2.8-0.6,5.8-2.2,9.1-4.9C109.4,145.7,112.6,141.7,115.6,136.4z M101,126.1
			c-0.4,0-1,0.3-1.8,0.9s-1.7,1.5-2.7,2.5s-2,2.3-3,3.7s-2,2.8-2.8,4.3c0.3,0.1,0.5,0.1,0.7,0.1s0.4,0,0.7,0c1.3,0,2.6-0.6,4-1.8
			s2.6-2.5,3.6-4s1.7-2.8,2.1-4C102,126.7,101.8,126.1,101,126.1z"/>
		<path class="st0" d="M140,116.9c0,1.4-0.4,2.9-1.1,4.3c-0.7,1.4-1.6,2.8-2.5,4c-1,1.2-2,2.3-3.1,3.3c-1.1,1-1.9,1.8-2.6,2.3
			c-0.1-0.5-0.2-1-0.1-1.6c0-0.5,0-1,0-1.5c0-0.5,0-0.9,0.1-1.4c-0.3,0.7-0.6,1.3-0.7,2c-0.2,0.7-0.3,1.4-0.4,2
			c-0.1,0.7-0.2,1.5-0.2,2.2c0,1.3,0.2,2.7,0.6,4.1c0.4,1.4,0.8,2.9,1.2,4.5s0.8,3.3,1.2,5.1s0.6,3.8,0.6,6c0,2.5-0.5,4.9-1.5,6.9
			c-1,2.1-2.4,3.9-4,5.4c-1.7,1.5-3.6,2.7-5.9,3.5c-2.2,0.8-4.6,1.2-7,1.2c-3.1,0-5.6-0.6-7.5-1.7c-1.9-1.1-3.2-2.6-4-4.3
			s-1.2-3.6-1.2-5.6s0.4-3.8,1-5.6c0.6-1.7,1.5-3.2,2.5-4.3s2.2-1.7,3.3-1.7c0.3,0,0.4,0.3,0.3,0.9c-0.1,0.6-0.1,1.3,0,2.1
			s0.5,1.5,1.2,2.1s2,0.9,4,0.9c1.3,0,2.4-0.2,3.2-0.6c0.8-0.4,1.5-1,2-1.7s0.8-1.5,1-2.4s0.2-1.9,0.2-2.8c-0.1-2.2-0.6-4.8-1.5-7.7
			l-0.4,0.9c-0.4,0.7-0.8,1-1.3,1.2c-0.5,0.1-0.9,0.1-1.3-0.1c-0.4-0.2-0.6-0.6-0.8-1c-0.2-0.5-0.1-0.9,0.2-1.5
			c0.3-0.5,0.7-1.2,1.2-2.1c0.5-0.8,1-1.7,1.4-2.6c0.5-0.9,0.9-1.7,1.2-2.3c0.4-0.7,0.6-1.1,0.6-1.3c0.3-1,0.7-2.3,1.4-4
			c0.7-1.7,1.6-3.4,2.8-5c1.2-1.7,2.7-3.1,4.5-4.4c1.8-1.2,3.9-1.9,6.5-1.9c1.8,0,3,0.4,3.7,1.3C139.6,115,140,115.9,140,116.9z"/>
	</g>
	<g>
		<g>
			<g>
				<g>
					<defs>
						<path id="SVGID_1_" d="M1.2,314.6h37.3v12c5.8-7.4,14.8-14.1,27.1-14.1c12.2,0,21.5,5.3,26.5,14.8
							c7.6-8.6,16.6-14.8,30.4-14.8c19.2,0,31.1,12.5,31.1,32.7v59.2h-37.3v-47.5c0-7.6-4.4-11.8-9.9-11.8
							c-5.4,0-10.4,4.3-10.4,11.8v47.5H58.8v-47.5c0-7.6-4.4-11.8-9.9-11.8c-5.4,0-10.4,4.3-10.4,11.8v47.5H1.2V314.6z"/>
					</defs>
					<clipPath id="SVGID_2_">
						<use xlink:href="#SVGID_1_"  style="overflow:visible;"/>
					</clipPath>
					<polygon class="st1" points="27,312.5 25.2,404.4 1.2,404.4 1.2,312.5 					"/>
				</g>
				<g>
					<defs>
						<path id="SVGID_3_" d="M1.2,314.6h37.3v12c5.8-7.4,14.8-14.1,27.1-14.1c12.2,0,21.5,5.3,26.5,14.8
							c7.6-8.6,16.6-14.8,30.4-14.8c19.2,0,31.1,12.5,31.1,32.7v59.2h-37.3v-47.5c0-7.6-4.4-11.8-9.9-11.8
							c-5.4,0-10.4,4.3-10.4,11.8v47.5H58.8v-47.5c0-7.6-4.4-11.8-9.9-11.8c-5.4,0-10.4,4.3-10.4,11.8v47.5H1.2V314.6z"/>
					</defs>
					<clipPath id="SVGID_4_">
						<use xlink:href="#SVGID_3_"  style="overflow:visible;"/>
					</clipPath>
					<polygon class="st2" points="53.2,312.5 51.4,404.4 25.2,404.4 27,312.5 					"/>
				</g>
				<g>
					<defs>
						<path id="SVGID_5_" d="M1.2,314.6h37.3v12c5.8-7.4,14.8-14.1,27.1-14.1c12.2,0,21.5,5.3,26.5,14.8
							c7.6-8.6,16.6-14.8,30.4-14.8c19.2,0,31.1,12.5,31.1,32.7v59.2h-37.3v-47.5c0-7.6-4.4-11.8-9.9-11.8
							c-5.4,0-10.4,4.3-10.4,11.8v47.5H58.8v-47.5c0-7.6-4.4-11.8-9.9-11.8c-5.4,0-10.4,4.3-10.4,11.8v47.5H1.2V314.6z"/>
					</defs>
					<clipPath id="SVGID_6_">
						<use xlink:href="#SVGID_5_"  style="overflow:visible;"/>
					</clipPath>
					<polygon class="st3" points="79.5,312.5 77.7,404.4 51.4,404.4 53.2,312.5 					"/>
				</g>
				<g>
					<defs>
						<path id="SVGID_7_" d="M1.2,314.6h37.3v12c5.8-7.4,14.8-14.1,27.1-14.1c12.2,0,21.5,5.3,26.5,14.8
							c7.6-8.6,16.6-14.8,30.4-14.8c19.2,0,31.1,12.5,31.1,32.7v59.2h-37.3v-47.5c0-7.6-4.4-11.8-9.9-11.8
							c-5.4,0-10.4,4.3-10.4,11.8v47.5H58.8v-47.5c0-7.6-4.4-11.8-9.9-11.8c-5.4,0-10.4,4.3-10.4,11.8v47.5H1.2V314.6z"/>
					</defs>
					<clipPath id="SVGID_8_">
						<use xlink:href="#SVGID_7_"  style="overflow:visible;"/>
					</clipPath>
					<polygon class="st4" points="105.7,312.5 103.9,404.4 77.7,404.4 79.5,312.5 					"/>
				</g>
				<g>
					<defs>
						<path id="SVGID_9_" d="M1.2,314.6h37.3v12c5.8-7.4,14.8-14.1,27.1-14.1c12.2,0,21.5,5.3,26.5,14.8
							c7.6-8.6,16.6-14.8,30.4-14.8c19.2,0,31.1,12.5,31.1,32.7v59.2h-37.3v-47.5c0-7.6-4.4-11.8-9.9-11.8
							c-5.4,0-10.4,4.3-10.4,11.8v47.5H58.8v-47.5c0-7.6-4.4-11.8-9.9-11.8c-5.4,0-10.4,4.3-10.4,11.8v47.5H1.2V314.6z"/>
					</defs>
					<clipPath id="SVGID_10_">
						<use xlink:href="#SVGID_9_"  style="overflow:visible;"/>
					</clipPath>
					<polygon class="st5" points="132,312.5 130.2,404.4 103.9,404.4 105.7,312.5 					"/>
				</g>
				<g>
					<defs>
						<path id="SVGID_11_" d="M1.2,314.6h37.3v12c5.8-7.4,14.8-14.1,27.1-14.1c12.2,0,21.5,5.3,26.5,14.8
							c7.6-8.6,16.6-14.8,30.4-14.8c19.2,0,31.1,12.5,31.1,32.7v59.2h-37.3v-47.5c0-7.6-4.4-11.8-9.9-11.8
							c-5.4,0-10.4,4.3-10.4,11.8v47.5H58.8v-47.5c0-7.6-4.4-11.8-9.9-11.8c-5.4,0-10.4,4.3-10.4,11.8v47.5H1.2V314.6z"/>
					</defs>
					<clipPath id="SVGID_12_">
						<use xlink:href="#SVGID_11_"  style="overflow:visible;"/>
					</clipPath>
					<polygon class="st6" points="130.2,404.4 132,312.5 153.7,312.5 153.7,404.4 					"/>
				</g>
			</g>
		</g>
		<g>
			<g>
				<g>
					<defs>
						<path id="SVGID_13_" d="M161.4,360v-0.3c0-26.8,19.2-47.2,46.2-47.2c31.9,0,46.7,22.2,46.7,49.5c0,2,0,4.3-0.2,6.3h-57.7
							c2.6,7.9,8.9,12,16.9,12c6.7,0,12.3-3.1,18.3-9.2l20.1,16c-8.9,11.5-21.5,19.6-41,19.6C181.4,406.6,161.4,388,161.4,360z
							 M220.3,351.8c-0.8-8.6-5.9-13.5-12.5-13.5c-6.3,0-10.7,5.3-11.8,13.5H220.3z"/>
					</defs>
					<clipPath id="SVGID_14_">
						<use xlink:href="#SVGID_13_"  style="overflow:visible;"/>
					</clipPath>
					<polygon class="st7" points="210.2,338.3 210,351.8 196,351.8 196,338.3 					"/>
				</g>
				<g>
					<defs>
						<path id="SVGID_15_" d="M161.4,360v-0.3c0-26.8,19.2-47.2,46.2-47.2c31.9,0,46.7,22.2,46.7,49.5c0,2,0,4.3-0.2,6.3h-57.7
							c2.6,7.9,8.9,12,16.9,12c6.7,0,12.3-3.1,18.3-9.2l20.1,16c-8.9,11.5-21.5,19.6-41,19.6C181.4,406.6,161.4,388,161.4,360z
							 M220.3,351.8c-0.8-8.6-5.9-13.5-12.5-13.5c-6.3,0-10.7,5.3-11.8,13.5H220.3z"/>
					</defs>
					<clipPath id="SVGID_16_">
						<use xlink:href="#SVGID_15_"  style="overflow:visible;"/>
					</clipPath>
					<polygon class="st8" points="210,351.8 210.2,338.3 220.3,338.3 220.3,351.8 					"/>
				</g>
				<g>
					<defs>
						<path id="SVGID_17_" d="M161.4,360v-0.3c0-26.8,19.2-47.2,46.2-47.2c31.9,0,46.7,22.2,46.7,49.5c0,2,0,4.3-0.2,6.3h-57.7
							c2.6,7.9,8.9,12,16.9,12c6.7,0,12.3-3.1,18.3-9.2l20.1,16c-8.9,11.5-21.5,19.6-41,19.6C181.4,406.6,161.4,388,161.4,360z
							 M220.3,351.8c-0.8-8.6-5.9-13.5-12.5-13.5c-6.3,0-10.7,5.3-11.8,13.5H220.3z"/>
					</defs>
					<clipPath id="SVGID_18_">
						<use xlink:href="#SVGID_17_"  style="overflow:visible;"/>
					</clipPath>
					<polygon class="st9" points="184.5,312.5 182.6,406.6 161.4,406.6 161.4,312.5 					"/>
				</g>
				<g>
					<defs>
						<path id="SVGID_19_" d="M161.4,360v-0.3c0-26.8,19.2-47.2,46.2-47.2c31.9,0,46.7,22.2,46.7,49.5c0,2,0,4.3-0.2,6.3h-57.7
							c2.6,7.9,8.9,12,16.9,12c6.7,0,12.3-3.1,18.3-9.2l20.1,16c-8.9,11.5-21.5,19.6-41,19.6C181.4,406.6,161.4,388,161.4,360z
							 M220.3,351.8c-0.8-8.6-5.9-13.5-12.5-13.5c-6.3,0-10.7,5.3-11.8,13.5H220.3z"/>
					</defs>
					<clipPath id="SVGID_20_">
						<use xlink:href="#SVGID_19_"  style="overflow:visible;"/>
					</clipPath>
					<polygon class="st10" points="210.7,312.5 208.9,406.6 182.6,406.6 184.5,312.5 					"/>
				</g>
				<g>
					<defs>
						<path id="SVGID_21_" d="M161.4,360v-0.3c0-26.8,19.2-47.2,46.2-47.2c31.9,0,46.7,22.2,46.7,49.5c0,2,0,4.3-0.2,6.3h-57.7
							c2.6,7.9,8.9,12,16.9,12c6.7,0,12.3-3.1,18.3-9.2l20.1,16c-8.9,11.5-21.5,19.6-41,19.6C181.4,406.6,161.4,388,161.4,360z
							 M220.3,351.8c-0.8-8.6-5.9-13.5-12.5-13.5c-6.3,0-10.7,5.3-11.8,13.5H220.3z"/>
					</defs>
					<clipPath id="SVGID_22_">
						<use xlink:href="#SVGID_21_"  style="overflow:visible;"/>
					</clipPath>
					<polygon class="st11" points="237,312.5 235.1,406.6 208.9,406.6 210.7,312.5 					"/>
				</g>
				<g>
					<defs>
						<path id="SVGID_23_" d="M161.4,360v-0.3c0-26.8,19.2-47.2,46.2-47.2c31.9,0,46.7,22.2,46.7,49.5c0,2,0,4.3-0.2,6.3h-57.7
							c2.6,7.9,8.9,12,16.9,12c6.7,0,12.3-3.1,18.3-9.2l20.1,16c-8.9,11.5-21.5,19.6-41,19.6C181.4,406.6,161.4,388,161.4,360z
							 M220.3,351.8c-0.8-8.6-5.9-13.5-12.5-13.5c-6.3,0-10.7,5.3-11.8,13.5H220.3z"/>
					</defs>
					<clipPath id="SVGID_24_">
						<use xlink:href="#SVGID_23_"  style="overflow:visible;"/>
					</clipPath>
					<polygon class="st12" points="235.1,406.6 237,312.5 254.4,312.5 254.4,406.6 					"/>
				</g>
			</g>
		</g>
		<g>
			<g>
				<g>
					<defs>
						<path id="SVGID_25_" d="M256.2,393.6l12.7-21.2c10.9,6.7,23,10,33.2,10c3.6,0,5.4-0.8,5.4-3v-0.3c0-1.8-1.6-3-10.7-5.3
							c-22.7-5.6-36.7-11.7-36.7-30.3v-0.3c0-19.7,15.8-30.8,39.2-30.8c14.8,0,29.4,3.8,40.3,10.4L327.8,345
							c-9.5-5.3-21.1-8.4-28.6-8.4c-3.6,0-5.3,1-5.3,2.8v0.3c0,1.8,2,3,11,5.3c22.7,5.6,36.4,11.8,36.4,30.3v0.3
							c0,19.6-14.6,30.9-39,30.9C284.8,406.6,269,402.1,256.2,393.6z"/>
					</defs>
					<clipPath id="SVGID_26_">
						<use xlink:href="#SVGID_25_"  style="overflow:visible;"/>
					</clipPath>
					<polygon class="st13" points="263.2,312.5 261.4,406.6 256.2,406.6 256.2,312.5 					"/>
				</g>
				<g>
					<defs>
						<path id="SVGID_27_" d="M256.2,393.6l12.7-21.2c10.9,6.7,23,10,33.2,10c3.6,0,5.4-0.8,5.4-3v-0.3c0-1.8-1.6-3-10.7-5.3
							c-22.7-5.6-36.7-11.7-36.7-30.3v-0.3c0-19.7,15.8-30.8,39.2-30.8c14.8,0,29.4,3.8,40.3,10.4L327.8,345
							c-9.5-5.3-21.1-8.4-28.6-8.4c-3.6,0-5.3,1-5.3,2.8v0.3c0,1.8,2,3,11,5.3c22.7,5.6,36.4,11.8,36.4,30.3v0.3
							c0,19.6-14.6,30.9-39,30.9C284.8,406.6,269,402.1,256.2,393.6z"/>
					</defs>
					<clipPath id="SVGID_28_">
						<use xlink:href="#SVGID_27_"  style="overflow:visible;"/>
					</clipPath>
					<polygon class="st14" points="289.5,312.5 287.6,406.6 261.4,406.6 263.2,312.5 					"/>
				</g>
				<g>
					<defs>
						<path id="SVGID_29_" d="M256.2,393.6l12.7-21.2c10.9,6.7,23,10,33.2,10c3.6,0,5.4-0.8,5.4-3v-0.3c0-1.8-1.6-3-10.7-5.3
							c-22.7-5.6-36.7-11.7-36.7-30.3v-0.3c0-19.7,15.8-30.8,39.2-30.8c14.8,0,29.4,3.8,40.3,10.4L327.8,345
							c-9.5-5.3-21.1-8.4-28.6-8.4c-3.6,0-5.3,1-5.3,2.8v0.3c0,1.8,2,3,11,5.3c22.7,5.6,36.4,11.8,36.4,30.3v0.3
							c0,19.6-14.6,30.9-39,30.9C284.8,406.6,269,402.1,256.2,393.6z"/>
					</defs>
					<clipPath id="SVGID_30_">
						<use xlink:href="#SVGID_29_"  style="overflow:visible;"/>
					</clipPath>
					<polygon class="st15" points="315.7,312.5 313.9,406.6 287.6,406.6 289.5,312.5 					"/>
				</g>
				<g>
					<defs>
						<path id="SVGID_31_" d="M256.2,393.6l12.7-21.2c10.9,6.7,23,10,33.2,10c3.6,0,5.4-0.8,5.4-3v-0.3c0-1.8-1.6-3-10.7-5.3
							c-22.7-5.6-36.7-11.7-36.7-30.3v-0.3c0-19.7,15.8-30.8,39.2-30.8c14.8,0,29.4,3.8,40.3,10.4L327.8,345
							c-9.5-5.3-21.1-8.4-28.6-8.4c-3.6,0-5.3,1-5.3,2.8v0.3c0,1.8,2,3,11,5.3c22.7,5.6,36.4,11.8,36.4,30.3v0.3
							c0,19.6-14.6,30.9-39,30.9C284.8,406.6,269,402.1,256.2,393.6z"/>
					</defs>
					<clipPath id="SVGID_32_">
						<use xlink:href="#SVGID_31_"  style="overflow:visible;"/>
					</clipPath>
					<polygon class="st16" points="341.2,349.2 340.1,406.6 313.9,406.6 315.7,312.5 341.2,312.5 					"/>
				</g>
				<g>
					<defs>
						<path id="SVGID_33_" d="M256.2,393.6l12.7-21.2c10.9,6.7,23,10,33.2,10c3.6,0,5.4-0.8,5.4-3v-0.3c0-1.8-1.6-3-10.7-5.3
							c-22.7-5.6-36.7-11.7-36.7-30.3v-0.3c0-19.7,15.8-30.8,39.2-30.8c14.8,0,29.4,3.8,40.3,10.4L327.8,345
							c-9.5-5.3-21.1-8.4-28.6-8.4c-3.6,0-5.3,1-5.3,2.8v0.3c0,1.8,2,3,11,5.3c22.7,5.6,36.4,11.8,36.4,30.3v0.3
							c0,19.6-14.6,30.9-39,30.9C284.8,406.6,269,402.1,256.2,393.6z"/>
					</defs>
					<clipPath id="SVGID_34_">
						<use xlink:href="#SVGID_33_"  style="overflow:visible;"/>
					</clipPath>
					<polygon class="st17" points="340.1,406.6 341.2,349.2 341.2,406.6 					"/>
				</g>
			</g>
		</g>
		<g>
			<g>
				<g>
					<defs>
						<path id="SVGID_35_" d="M342.6,393.6l12.7-21.2c10.9,6.7,23,10,33.2,10c3.6,0,5.4-0.8,5.4-3v-0.3c0-1.8-1.6-3-10.7-5.3
							c-22.7-5.6-36.7-11.7-36.7-30.3v-0.3c0-19.7,15.8-30.8,39.1-30.8c14.8,0,29.4,3.8,40.3,10.4L414.1,345
							c-9.5-5.3-21.1-8.4-28.6-8.4c-3.6,0-5.3,1-5.3,2.8v0.3c0,1.8,2,3,11,5.3c22.7,5.6,36.4,11.8,36.4,30.3v0.3
							c0,19.6-14.6,30.9-39,30.9C371.2,406.6,355.4,402.1,342.6,393.6z"/>
					</defs>
					<clipPath id="SVGID_36_">
						<use xlink:href="#SVGID_35_"  style="overflow:visible;"/>
					</clipPath>
					<polygon class="st18" points="368.2,312.5 366.4,406.6 342.6,406.6 342.6,312.5 					"/>
				</g>
				<g>
					<defs>
						<path id="SVGID_37_" d="M342.6,393.6l12.7-21.2c10.9,6.7,23,10,33.2,10c3.6,0,5.4-0.8,5.4-3v-0.3c0-1.8-1.6-3-10.7-5.3
							c-22.7-5.6-36.7-11.7-36.7-30.3v-0.3c0-19.7,15.8-30.8,39.1-30.8c14.8,0,29.4,3.8,40.3,10.4L414.1,345
							c-9.5-5.3-21.1-8.4-28.6-8.4c-3.6,0-5.3,1-5.3,2.8v0.3c0,1.8,2,3,11,5.3c22.7,5.6,36.4,11.8,36.4,30.3v0.3
							c0,19.6-14.6,30.9-39,30.9C371.2,406.6,355.4,402.1,342.6,393.6z"/>
					</defs>
					<clipPath id="SVGID_38_">
						<use xlink:href="#SVGID_37_"  style="overflow:visible;"/>
					</clipPath>
					<polygon class="st19" points="394.5,312.5 392.6,406.6 366.4,406.6 368.2,312.5 					"/>
				</g>
				<g>
					<defs>
						<path id="SVGID_39_" d="M342.6,393.6l12.7-21.2c10.9,6.7,23,10,33.2,10c3.6,0,5.4-0.8,5.4-3v-0.3c0-1.8-1.6-3-10.7-5.3
							c-22.7-5.6-36.7-11.7-36.7-30.3v-0.3c0-19.7,15.8-30.8,39.1-30.8c14.8,0,29.4,3.8,40.3,10.4L414.1,345
							c-9.5-5.3-21.1-8.4-28.6-8.4c-3.6,0-5.3,1-5.3,2.8v0.3c0,1.8,2,3,11,5.3c22.7,5.6,36.4,11.8,36.4,30.3v0.3
							c0,19.6-14.6,30.9-39,30.9C371.2,406.6,355.4,402.1,342.6,393.6z"/>
					</defs>
					<clipPath id="SVGID_40_">
						<use xlink:href="#SVGID_39_"  style="overflow:visible;"/>
					</clipPath>
					<polygon class="st20" points="420.7,312.5 418.9,406.6 392.6,406.6 394.5,312.5 					"/>
				</g>
				<g>
					<defs>
						<path id="SVGID_41_" d="M342.6,393.6l12.7-21.2c10.9,6.7,23,10,33.2,10c3.6,0,5.4-0.8,5.4-3v-0.3c0-1.8-1.6-3-10.7-5.3
							c-22.7-5.6-36.7-11.7-36.7-30.3v-0.3c0-19.7,15.8-30.8,39.1-30.8c14.8,0,29.4,3.8,40.3,10.4L414.1,345
							c-9.5-5.3-21.1-8.4-28.6-8.4c-3.6,0-5.3,1-5.3,2.8v0.3c0,1.8,2,3,11,5.3c22.7,5.6,36.4,11.8,36.4,30.3v0.3
							c0,19.6-14.6,30.9-39,30.9C371.2,406.6,355.4,402.1,342.6,393.6z"/>
					</defs>
					<clipPath id="SVGID_42_">
						<use xlink:href="#SVGID_41_"  style="overflow:visible;"/>
					</clipPath>
					<polygon class="st21" points="418.9,406.6 420.7,312.5 427.6,312.5 427.6,406.6 					"/>
				</g>
			</g>
		</g>
		<g>
			<g>
				<g>
					<defs>
						<path id="SVGID_43_" d="M432.5,360v-0.3c0-26.8,19.2-47.2,46.2-47.2c31.9,0,46.7,22.2,46.7,49.5c0,2,0,4.3-0.2,6.3h-57.7
							c2.6,7.9,8.9,12,16.9,12c6.7,0,12.3-3.1,18.3-9.2l20.1,16c-8.9,11.5-21.5,19.6-41,19.6C452.4,406.6,432.5,388,432.5,360z
							 M491.4,351.8c-0.8-8.6-5.9-13.5-12.5-13.5c-6.3,0-10.7,5.3-11.8,13.5H491.4z"/>
					</defs>
					<clipPath id="SVGID_44_">
						<use xlink:href="#SVGID_43_"  style="overflow:visible;"/>
					</clipPath>
					<polygon class="st22" points="472.7,338.3 472.4,351.8 467.1,351.8 467.1,338.3 					"/>
				</g>
				<g>
					<defs>
						<path id="SVGID_45_" d="M432.5,360v-0.3c0-26.8,19.2-47.2,46.2-47.2c31.9,0,46.7,22.2,46.7,49.5c0,2,0,4.3-0.2,6.3h-57.7
							c2.6,7.9,8.9,12,16.9,12c6.7,0,12.3-3.1,18.3-9.2l20.1,16c-8.9,11.5-21.5,19.6-41,19.6C452.4,406.6,432.5,388,432.5,360z
							 M491.4,351.8c-0.8-8.6-5.9-13.5-12.5-13.5c-6.3,0-10.7,5.3-11.8,13.5H491.4z"/>
					</defs>
					<clipPath id="SVGID_46_">
						<use xlink:href="#SVGID_45_"  style="overflow:visible;"/>
					</clipPath>
					<polygon class="st23" points="472.4,351.8 472.7,338.3 491.4,338.3 491.4,351.8 					"/>
				</g>
				<g>
					<defs>
						<path id="SVGID_47_" d="M432.5,360v-0.3c0-26.8,19.2-47.2,46.2-47.2c31.9,0,46.7,22.2,46.7,49.5c0,2,0,4.3-0.2,6.3h-57.7
							c2.6,7.9,8.9,12,16.9,12c6.7,0,12.3-3.1,18.3-9.2l20.1,16c-8.9,11.5-21.5,19.6-41,19.6C452.4,406.6,432.5,388,432.5,360z
							 M491.4,351.8c-0.8-8.6-5.9-13.5-12.5-13.5c-6.3,0-10.7,5.3-11.8,13.5H491.4z"/>
					</defs>
					<clipPath id="SVGID_48_">
						<use xlink:href="#SVGID_47_"  style="overflow:visible;"/>
					</clipPath>
					<polygon class="st24" points="446.9,312.5 445.1,406.6 432.5,406.6 432.5,312.5 					"/>
				</g>
				<g>
					<defs>
						<path id="SVGID_49_" d="M432.5,360v-0.3c0-26.8,19.2-47.2,46.2-47.2c31.9,0,46.7,22.2,46.7,49.5c0,2,0,4.3-0.2,6.3h-57.7
							c2.6,7.9,8.9,12,16.9,12c6.7,0,12.3-3.1,18.3-9.2l20.1,16c-8.9,11.5-21.5,19.6-41,19.6C452.4,406.6,432.5,388,432.5,360z
							 M491.4,351.8c-0.8-8.6-5.9-13.5-12.5-13.5c-6.3,0-10.7,5.3-11.8,13.5H491.4z"/>
					</defs>
					<clipPath id="SVGID_50_">
						<use xlink:href="#SVGID_49_"  style="overflow:visible;"/>
					</clipPath>
					<polygon class="st25" points="473.2,312.5 471.3,406.6 445.1,406.6 446.9,312.5 					"/>
				</g>
				<g>
					<defs>
						<path id="SVGID_51_" d="M432.5,360v-0.3c0-26.8,19.2-47.2,46.2-47.2c31.9,0,46.7,22.2,46.7,49.5c0,2,0,4.3-0.2,6.3h-57.7
							c2.6,7.9,8.9,12,16.9,12c6.7,0,12.3-3.1,18.3-9.2l20.1,16c-8.9,11.5-21.5,19.6-41,19.6C452.4,406.6,432.5,388,432.5,360z
							 M491.4,351.8c-0.8-8.6-5.9-13.5-12.5-13.5c-6.3,0-10.7,5.3-11.8,13.5H491.4z"/>
					</defs>
					<clipPath id="SVGID_52_">
						<use xlink:href="#SVGID_51_"  style="overflow:visible;"/>
					</clipPath>
					<polygon class="st26" points="499.4,312.5 497.6,406.6 471.3,406.6 473.2,312.5 					"/>
				</g>
				<g>
					<defs>
						<path id="SVGID_53_" d="M432.5,360v-0.3c0-26.8,19.2-47.2,46.2-47.2c31.9,0,46.7,22.2,46.7,49.5c0,2,0,4.3-0.2,6.3h-57.7
							c2.6,7.9,8.9,12,16.9,12c6.7,0,12.3-3.1,18.3-9.2l20.1,16c-8.9,11.5-21.5,19.6-41,19.6C452.4,406.6,432.5,388,432.5,360z
							 M491.4,351.8c-0.8-8.6-5.9-13.5-12.5-13.5c-6.3,0-10.7,5.3-11.8,13.5H491.4z"/>
					</defs>
					<clipPath id="SVGID_54_">
						<use xlink:href="#SVGID_53_"  style="overflow:visible;"/>
					</clipPath>
					<polygon class="st27" points="525.5,323.4 523.8,406.6 497.6,406.6 499.4,312.5 525.5,312.5 					"/>
				</g>
				<g>
					<defs>
						<path id="SVGID_55_" d="M432.5,360v-0.3c0-26.8,19.2-47.2,46.2-47.2c31.9,0,46.7,22.2,46.7,49.5c0,2,0,4.3-0.2,6.3h-57.7
							c2.6,7.9,8.9,12,16.9,12c6.7,0,12.3-3.1,18.3-9.2l20.1,16c-8.9,11.5-21.5,19.6-41,19.6C452.4,406.6,432.5,388,432.5,360z
							 M491.4,351.8c-0.8-8.6-5.9-13.5-12.5-13.5c-6.3,0-10.7,5.3-11.8,13.5H491.4z"/>
					</defs>
					<clipPath id="SVGID_56_">
						<use xlink:href="#SVGID_55_"  style="overflow:visible;"/>
					</clipPath>
					<polygon class="st28" points="523.8,406.6 525.5,323.4 525.5,406.6 					"/>
				</g>
			</g>
		</g>
		<g>
			<g>
				<g>
					<defs>
						<path id="SVGID_57_" d="M533.7,314.6H571v12.5c5.8-7.4,14.8-14.6,27.5-14.6c18.9,0,30.8,12.5,30.8,32.7v59.2H592v-47.2
							c0-7.7-4.6-12.2-10.2-12.2c-5.6,0-10.7,4.4-10.7,12.2v47.2h-37.3L533.7,314.6L533.7,314.6z"/>
					</defs>
					<clipPath id="SVGID_58_">
						<use xlink:href="#SVGID_57_"  style="overflow:visible;"/>
					</clipPath>
					<polygon class="st29" points="551.9,312.5 550.1,404.4 533.7,404.4 533.7,312.5 					"/>
				</g>
				<g>
					<defs>
						<path id="SVGID_59_" d="M533.7,314.6H571v12.5c5.8-7.4,14.8-14.6,27.5-14.6c18.9,0,30.8,12.5,30.8,32.7v59.2H592v-47.2
							c0-7.7-4.6-12.2-10.2-12.2c-5.6,0-10.7,4.4-10.7,12.2v47.2h-37.3L533.7,314.6L533.7,314.6z"/>
					</defs>
					<clipPath id="SVGID_60_">
						<use xlink:href="#SVGID_59_"  style="overflow:visible;"/>
					</clipPath>
					<polygon class="st30" points="578.2,312.5 576.4,404.4 550.1,404.4 551.9,312.5 					"/>
				</g>
				<g>
					<defs>
						<path id="SVGID_61_" d="M533.7,314.6H571v12.5c5.8-7.4,14.8-14.6,27.5-14.6c18.9,0,30.8,12.5,30.8,32.7v59.2H592v-47.2
							c0-7.7-4.6-12.2-10.2-12.2c-5.6,0-10.7,4.4-10.7,12.2v47.2h-37.3L533.7,314.6L533.7,314.6z"/>
					</defs>
					<clipPath id="SVGID_62_">
						<use xlink:href="#SVGID_61_"  style="overflow:visible;"/>
					</clipPath>
					<polygon class="st31" points="604.4,312.5 602.6,404.4 576.4,404.4 578.2,312.5 					"/>
				</g>
				<g>
					<defs>
						<path id="SVGID_63_" d="M533.7,314.6H571v12.5c5.8-7.4,14.8-14.6,27.5-14.6c18.9,0,30.8,12.5,30.8,32.7v59.2H592v-47.2
							c0-7.7-4.6-12.2-10.2-12.2c-5.6,0-10.7,4.4-10.7,12.2v47.2h-37.3L533.7,314.6L533.7,314.6z"/>
					</defs>
					<clipPath id="SVGID_64_">
						<use xlink:href="#SVGID_63_"  style="overflow:visible;"/>
					</clipPath>
					<polygon class="st32" points="629.3,384.2 628.9,404.4 602.6,404.4 604.4,312.5 629.3,312.5 					"/>
				</g>
				<g>
					<defs>
						<path id="SVGID_65_" d="M533.7,314.6H571v12.5c5.8-7.4,14.8-14.6,27.5-14.6c18.9,0,30.8,12.5,30.8,32.7v59.2H592v-47.2
							c0-7.7-4.6-12.2-10.2-12.2c-5.6,0-10.7,4.4-10.7,12.2v47.2h-37.3L533.7,314.6L533.7,314.6z"/>
					</defs>
					<clipPath id="SVGID_66_">
						<use xlink:href="#SVGID_65_"  style="overflow:visible;"/>
					</clipPath>
					<polygon class="st33" points="628.9,404.4 629.3,384.2 629.3,404.4 					"/>
				</g>
			</g>
		</g>
		<g>
			<g>
				<g>
					<defs>
						<path id="SVGID_67_" d="M637.8,419.9l11.5-22.5c10,5.3,20.1,8.6,32.4,8.6c14,0,21.4-7.2,21.4-19.7v-2.6
							c-5.1,5.8-13.5,12.3-26,12.3c-23.2,0-40-16.4-40-41.3v-0.3c0-25.2,17.1-41.8,37.8-41.8c13.2,0,20.9,4.9,27.5,11.7v-9.5h37.3
							v67.1c0,16.6-3.5,28-11.7,36.2c-8.1,8.1-20.4,13.2-40.5,13.2C667.8,431.1,652.3,427.1,637.8,419.9z M703.3,354.4v-0.3
							c0-7.7-5.9-14-15-14c-9.2,0-15,6.4-15,14.3v0.3c0,7.7,5.9,13.8,15,13.8C697.5,368.6,703.3,362.3,703.3,354.4z"/>
					</defs>
					<clipPath id="SVGID_68_">
						<use xlink:href="#SVGID_67_"  style="overflow:visible;"/>
					</clipPath>
					<polygon class="st34" points="682.6,340.1 682.1,368.6 673.3,368.6 673.3,340.1 					"/>
				</g>
				<g>
					<defs>
						<path id="SVGID_69_" d="M637.8,419.9l11.5-22.5c10,5.3,20.1,8.6,32.4,8.6c14,0,21.4-7.2,21.4-19.7v-2.6
							c-5.1,5.8-13.5,12.3-26,12.3c-23.2,0-40-16.4-40-41.3v-0.3c0-25.2,17.1-41.8,37.8-41.8c13.2,0,20.9,4.9,27.5,11.7v-9.5h37.3
							v67.1c0,16.6-3.5,28-11.7,36.2c-8.1,8.1-20.4,13.2-40.5,13.2C667.8,431.1,652.3,427.1,637.8,419.9z M703.3,354.4v-0.3
							c0-7.7-5.9-14-15-14c-9.2,0-15,6.4-15,14.3v0.3c0,7.7,5.9,13.8,15,13.8C697.5,368.6,703.3,362.3,703.3,354.4z"/>
					</defs>
					<clipPath id="SVGID_70_">
						<use xlink:href="#SVGID_69_"  style="overflow:visible;"/>
					</clipPath>
					<polygon class="st35" points="682.1,368.6 682.6,340.1 703.3,340.1 703.3,368.6 					"/>
				</g>
				<g>
					<defs>
						<path id="SVGID_71_" d="M637.8,419.9l11.5-22.5c10,5.3,20.1,8.6,32.4,8.6c14,0,21.4-7.2,21.4-19.7v-2.6
							c-5.1,5.8-13.5,12.3-26,12.3c-23.2,0-40-16.4-40-41.3v-0.3c0-25.2,17.1-41.8,37.8-41.8c13.2,0,20.9,4.9,27.5,11.7v-9.5h37.3
							v67.1c0,16.6-3.5,28-11.7,36.2c-8.1,8.1-20.4,13.2-40.5,13.2C667.8,431.1,652.3,427.1,637.8,419.9z M703.3,354.4v-0.3
							c0-7.7-5.9-14-15-14c-9.2,0-15,6.4-15,14.3v0.3c0,7.7,5.9,13.8,15,13.8C697.5,368.6,703.3,362.3,703.3,354.4z"/>
					</defs>
					<clipPath id="SVGID_72_">
						<use xlink:href="#SVGID_71_"  style="overflow:visible;"/>
					</clipPath>
					<polygon class="st36" points="656.9,312.5 654.6,431.1 637.2,431.1 637.2,312.5 					"/>
				</g>
				<g>
					<defs>
						<path id="SVGID_73_" d="M637.8,419.9l11.5-22.5c10,5.3,20.1,8.6,32.4,8.6c14,0,21.4-7.2,21.4-19.7v-2.6
							c-5.1,5.8-13.5,12.3-26,12.3c-23.2,0-40-16.4-40-41.3v-0.3c0-25.2,17.1-41.8,37.8-41.8c13.2,0,20.9,4.9,27.5,11.7v-9.5h37.3
							v67.1c0,16.6-3.5,28-11.7,36.2c-8.1,8.1-20.4,13.2-40.5,13.2C667.8,431.1,652.3,427.1,637.8,419.9z M703.3,354.4v-0.3
							c0-7.7-5.9-14-15-14c-9.2,0-15,6.4-15,14.3v0.3c0,7.7,5.9,13.8,15,13.8C697.5,368.6,703.3,362.3,703.3,354.4z"/>
					</defs>
					<clipPath id="SVGID_74_">
						<use xlink:href="#SVGID_73_"  style="overflow:visible;"/>
					</clipPath>
					<polygon class="st37" points="683.2,312.5 680.8,431.1 654.6,431.1 656.9,312.5 					"/>
				</g>
				<g>
					<defs>
						<path id="SVGID_75_" d="M637.8,419.9l11.5-22.5c10,5.3,20.1,8.6,32.4,8.6c14,0,21.4-7.2,21.4-19.7v-2.6
							c-5.1,5.8-13.5,12.3-26,12.3c-23.2,0-40-16.4-40-41.3v-0.3c0-25.2,17.1-41.8,37.8-41.8c13.2,0,20.9,4.9,27.5,11.7v-9.5h37.3
							v67.1c0,16.6-3.5,28-11.7,36.2c-8.1,8.1-20.4,13.2-40.5,13.2C667.8,431.1,652.3,427.1,637.8,419.9z M703.3,354.4v-0.3
							c0-7.7-5.9-14-15-14c-9.2,0-15,6.4-15,14.3v0.3c0,7.7,5.9,13.8,15,13.8C697.5,368.6,703.3,362.3,703.3,354.4z"/>
					</defs>
					<clipPath id="SVGID_76_">
						<use xlink:href="#SVGID_75_"  style="overflow:visible;"/>
					</clipPath>
					<polygon class="st38" points="709.4,312.5 707.1,431.1 680.8,431.1 683.2,312.5 					"/>
				</g>
				<g>
					<defs>
						<path id="SVGID_77_" d="M637.8,419.9l11.5-22.5c10,5.3,20.1,8.6,32.4,8.6c14,0,21.4-7.2,21.4-19.7v-2.6
							c-5.1,5.8-13.5,12.3-26,12.3c-23.2,0-40-16.4-40-41.3v-0.3c0-25.2,17.1-41.8,37.8-41.8c13.2,0,20.9,4.9,27.5,11.7v-9.5h37.3
							v67.1c0,16.6-3.5,28-11.7,36.2c-8.1,8.1-20.4,13.2-40.5,13.2C667.8,431.1,652.3,427.1,637.8,419.9z M703.3,354.4v-0.3
							c0-7.7-5.9-14-15-14c-9.2,0-15,6.4-15,14.3v0.3c0,7.7,5.9,13.8,15,13.8C697.5,368.6,703.3,362.3,703.3,354.4z"/>
					</defs>
					<clipPath id="SVGID_78_">
						<use xlink:href="#SVGID_77_"  style="overflow:visible;"/>
					</clipPath>
					<polygon class="st39" points="735.7,312.5 733.3,431.1 707.1,431.1 709.4,312.5 					"/>
				</g>
				<g>
					<defs>
						<path id="SVGID_79_" d="M637.8,419.9l11.5-22.5c10,5.3,20.1,8.6,32.4,8.6c14,0,21.4-7.2,21.4-19.7v-2.6
							c-5.1,5.8-13.5,12.3-26,12.3c-23.2,0-40-16.4-40-41.3v-0.3c0-25.2,17.1-41.8,37.8-41.8c13.2,0,20.9,4.9,27.5,11.7v-9.5h37.3
							v67.1c0,16.6-3.5,28-11.7,36.2c-8.1,8.1-20.4,13.2-40.5,13.2C667.8,431.1,652.3,427.1,637.8,419.9z M703.3,354.4v-0.3
							c0-7.7-5.9-14-15-14c-9.2,0-15,6.4-15,14.3v0.3c0,7.7,5.9,13.8,15,13.8C697.5,368.6,703.3,362.3,703.3,354.4z"/>
					</defs>
					<clipPath id="SVGID_80_">
						<use xlink:href="#SVGID_79_"  style="overflow:visible;"/>
					</clipPath>
					<polygon class="st40" points="733.3,431.1 735.7,312.5 739.8,312.5 739.8,431.1 					"/>
				</g>
			</g>
		</g>
		<g>
			<g>
				<g>
					<defs>
						<path id="SVGID_81_" d="M748.2,360v-0.3c0-26.8,19.2-47.2,46.2-47.2c31.9,0,46.7,22.2,46.7,49.5c0,2,0,4.3-0.2,6.3h-57.7
							c2.6,7.9,8.9,12,16.9,12c6.7,0,12.3-3.1,18.3-9.2l20.1,16c-8.9,11.5-21.5,19.6-41,19.6C768.1,406.6,748.2,388,748.2,360z
							 M807.1,351.8c-0.8-8.6-5.9-13.5-12.5-13.5c-6.3,0-10.7,5.3-11.8,13.5H807.1z"/>
					</defs>
					<clipPath id="SVGID_82_">
						<use xlink:href="#SVGID_81_"  style="overflow:visible;"/>
					</clipPath>
					<polygon class="st41" points="787.6,338.3 787.4,351.8 782.7,351.8 782.7,338.3 					"/>
				</g>
				<g>
					<defs>
						<path id="SVGID_83_" d="M748.2,360v-0.3c0-26.8,19.2-47.2,46.2-47.2c31.9,0,46.7,22.2,46.7,49.5c0,2,0,4.3-0.2,6.3h-57.7
							c2.6,7.9,8.9,12,16.9,12c6.7,0,12.3-3.1,18.3-9.2l20.1,16c-8.9,11.5-21.5,19.6-41,19.6C768.1,406.6,748.2,388,748.2,360z
							 M807.1,351.8c-0.8-8.6-5.9-13.5-12.5-13.5c-6.3,0-10.7,5.3-11.8,13.5H807.1z"/>
					</defs>
					<clipPath id="SVGID_84_">
						<use xlink:href="#SVGID_83_"  style="overflow:visible;"/>
					</clipPath>
					<polygon class="st42" points="787.4,351.8 787.6,338.3 807.1,338.3 807.1,351.8 					"/>
				</g>
				<g>
					<defs>
						<path id="SVGID_85_" d="M748.2,360v-0.3c0-26.8,19.2-47.2,46.2-47.2c31.9,0,46.7,22.2,46.7,49.5c0,2,0,4.3-0.2,6.3h-57.7
							c2.6,7.9,8.9,12,16.9,12c6.7,0,12.3-3.1,18.3-9.2l20.1,16c-8.9,11.5-21.5,19.6-41,19.6C768.1,406.6,748.2,388,748.2,360z
							 M807.1,351.8c-0.8-8.6-5.9-13.5-12.5-13.5c-6.3,0-10.7,5.3-11.8,13.5H807.1z"/>
					</defs>
					<clipPath id="SVGID_86_">
						<use xlink:href="#SVGID_85_"  style="overflow:visible;"/>
					</clipPath>
					<polygon class="st43" points="761.9,312.5 760.1,406.6 748.2,406.6 748.2,312.5 					"/>
				</g>
				<g>
					<defs>
						<path id="SVGID_87_" d="M748.2,360v-0.3c0-26.8,19.2-47.2,46.2-47.2c31.9,0,46.7,22.2,46.7,49.5c0,2,0,4.3-0.2,6.3h-57.7
							c2.6,7.9,8.9,12,16.9,12c6.7,0,12.3-3.1,18.3-9.2l20.1,16c-8.9,11.5-21.5,19.6-41,19.6C768.1,406.6,748.2,388,748.2,360z
							 M807.1,351.8c-0.8-8.6-5.9-13.5-12.5-13.5c-6.3,0-10.7,5.3-11.8,13.5H807.1z"/>
					</defs>
					<clipPath id="SVGID_88_">
						<use xlink:href="#SVGID_87_"  style="overflow:visible;"/>
					</clipPath>
					<polygon class="st44" points="788.2,312.5 786.3,406.6 760.1,406.6 761.9,312.5 					"/>
				</g>
				<g>
					<defs>
						<path id="SVGID_89_" d="M748.2,360v-0.3c0-26.8,19.2-47.2,46.2-47.2c31.9,0,46.7,22.2,46.7,49.5c0,2,0,4.3-0.2,6.3h-57.7
							c2.6,7.9,8.9,12,16.9,12c6.7,0,12.3-3.1,18.3-9.2l20.1,16c-8.9,11.5-21.5,19.6-41,19.6C768.1,406.6,748.2,388,748.2,360z
							 M807.1,351.8c-0.8-8.6-5.9-13.5-12.5-13.5c-6.3,0-10.7,5.3-11.8,13.5H807.1z"/>
					</defs>
					<clipPath id="SVGID_90_">
						<use xlink:href="#SVGID_89_"  style="overflow:visible;"/>
					</clipPath>
					<polygon class="st45" points="814.4,312.5 812.6,406.6 786.3,406.6 788.2,312.5 					"/>
				</g>
				<g>
					<defs>
						<path id="SVGID_91_" d="M748.2,360v-0.3c0-26.8,19.2-47.2,46.2-47.2c31.9,0,46.7,22.2,46.7,49.5c0,2,0,4.3-0.2,6.3h-57.7
							c2.6,7.9,8.9,12,16.9,12c6.7,0,12.3-3.1,18.3-9.2l20.1,16c-8.9,11.5-21.5,19.6-41,19.6C768.1,406.6,748.2,388,748.2,360z
							 M807.1,351.8c-0.8-8.6-5.9-13.5-12.5-13.5c-6.3,0-10.7,5.3-11.8,13.5H807.1z"/>
					</defs>
					<clipPath id="SVGID_92_">
						<use xlink:href="#SVGID_91_"  style="overflow:visible;"/>
					</clipPath>
					<polygon class="st46" points="840.6,312.5 838.8,406.6 812.6,406.6 814.4,312.5 					"/>
				</g>
				<g>
					<defs>
						<path id="SVGID_93_" d="M748.2,360v-0.3c0-26.8,19.2-47.2,46.2-47.2c31.9,0,46.7,22.2,46.7,49.5c0,2,0,4.3-0.2,6.3h-57.7
							c2.6,7.9,8.9,12,16.9,12c6.7,0,12.3-3.1,18.3-9.2l20.1,16c-8.9,11.5-21.5,19.6-41,19.6C768.1,406.6,748.2,388,748.2,360z
							 M807.1,351.8c-0.8-8.6-5.9-13.5-12.5-13.5c-6.3,0-10.7,5.3-11.8,13.5H807.1z"/>
					</defs>
					<clipPath id="SVGID_94_">
						<use xlink:href="#SVGID_93_"  style="overflow:visible;"/>
					</clipPath>
					<polygon class="st47" points="838.8,406.6 840.6,312.5 841.1,312.5 841.1,406.6 					"/>
				</g>
			</g>
		</g>
		<g>
			<g>
				<g>
					<defs>
						<path id="SVGID_95_" d="M849.4,314.6h37.3v18.1c5.1-12.2,13.3-20.1,28.1-19.4v39.6h-3.9c-15.8,0-24.2,8.7-24.2,28.6v22.9
							h-37.3L849.4,314.6L849.4,314.6z"/>
					</defs>
					<clipPath id="SVGID_96_">
						<use xlink:href="#SVGID_95_"  style="overflow:visible;"/>
					</clipPath>
					<polygon class="st48" points="866.9,312.6 865.1,404.4 849.4,404.4 849.4,312.6 					"/>
				</g>
				<g>
					<defs>
						<path id="SVGID_97_" d="M849.4,314.6h37.3v18.1c5.1-12.2,13.3-20.1,28.1-19.4v39.6h-3.9c-15.8,0-24.2,8.7-24.2,28.6v22.9
							h-37.3L849.4,314.6L849.4,314.6z"/>
					</defs>
					<clipPath id="SVGID_98_">
						<use xlink:href="#SVGID_97_"  style="overflow:visible;"/>
					</clipPath>
					<polygon class="st49" points="893.1,312.6 891.3,404.4 865.1,404.4 866.9,312.6 					"/>
				</g>
				<g>
					<defs>
						<path id="SVGID_99_" d="M849.4,314.6h37.3v18.1c5.1-12.2,13.3-20.1,28.1-19.4v39.6h-3.9c-15.8,0-24.2,8.7-24.2,28.6v22.9
							h-37.3L849.4,314.6L849.4,314.6z"/>
					</defs>
					<clipPath id="SVGID_100_">
						<use xlink:href="#SVGID_99_"  style="overflow:visible;"/>
					</clipPath>
					<polygon class="st50" points="891.3,404.4 893.1,312.6 914.8,312.6 914.8,404.4 					"/>
				</g>
			</g>
		</g>
	</g>
	<g>
		<rect y="278.8" class="st51" width="914.2" height="1.3"/>
	</g>
</g>
</svg>
